<svg width="1067" height="400" viewBox="0 0 1067 400" fill="none" xmlns="http://www.w3.org/2000/svg">
<g clip-path="url(#clip0_138_5)">
<rect x="0.286865" width="1066.67" height="400" fill="white"/>
<g opacity="0.66" clip-path="url(#clip1_138_5)">
<path d="M20.3835 -28.342H-8.12292V0.173374H20.3835V-28.342Z" stroke="#DDDDDD" stroke-width="1.5"/>
<path d="M48.89 -28.342H20.3835V0.173374H48.89V-28.342Z" stroke="#DDDDDD" stroke-width="1.5"/>
<path d="M77.3965 -28.342H48.89V0.173374H77.3965V-28.342Z" fill="#E2E7F0" fill-opacity="0.3" stroke="#DDDDDD" stroke-width="1.5"/>
<path d="M105.903 -28.342H77.3965V0.173374H105.903V-28.342Z" stroke="#DDDDDD" stroke-width="1.5"/>
<path d="M134.409 -28.342H105.903V0.173374H134.409V-28.342Z" stroke="#DDDDDD" stroke-width="1.5"/>
<path d="M162.916 -28.342H134.409V0.173374H162.916V-28.342Z" stroke="#DDDDDD" stroke-width="1.5"/>
<path d="M191.422 -28.342H162.916V0.173374H191.422V-28.342Z" stroke="#DDDDDD" stroke-width="1.5"/>
<path d="M219.929 -28.342H191.422V0.173374H219.929V-28.342Z" stroke="#DDDDDD" stroke-width="1.5"/>
<path d="M248.435 -28.342H219.929V0.173374H248.435V-28.342Z" fill="#E2E7F0" fill-opacity="0.3" stroke="#DDDDDD" stroke-width="1.5"/>
<path d="M276.942 -28.342H248.435V0.173374H276.942V-28.342Z" stroke="#DDDDDD" stroke-width="1.5"/>
<path d="M305.448 -28.342H276.942V0.173374H305.448V-28.342Z" stroke="#DDDDDD" stroke-width="1.5"/>
<path d="M333.955 -28.342H305.448V0.173374H333.955V-28.342Z" stroke="#DDDDDD" stroke-width="1.5"/>
<path d="M619.019 -28.342H590.513V0.173374H619.019V-28.342Z" stroke="#DDDDDD" stroke-width="1.5"/>
<path d="M647.526 -28.342H619.019V0.173374H647.526V-28.342Z" stroke="#DDDDDD" stroke-width="1.5"/>
<path d="M676.032 -28.342H647.526V0.173374H676.032V-28.342Z" stroke="#DDDDDD" stroke-width="1.5"/>
<path d="M704.539 -28.342H676.032V0.173374H704.539V-28.342Z" stroke="#DDDDDD" stroke-width="1.5"/>
<path d="M733.045 -28.342H704.539V0.173374H733.045V-28.342Z" fill="#E2E7F0" fill-opacity="0.3" stroke="#DDDDDD" stroke-width="1.5"/>
<path d="M761.552 -28.342H733.045V0.173374H761.552V-28.342Z" stroke="#DDDDDD" stroke-width="1.5"/>
<path d="M790.058 -28.342H761.552V0.173374H790.058V-28.342Z" stroke="#DDDDDD" stroke-width="1.5"/>
<path d="M818.565 -28.342H790.058V0.173374H818.565V-28.342Z" fill="#E2E7F0" fill-opacity="0.3" stroke="#DDDDDD" stroke-width="1.5"/>
<path d="M847.071 -28.342H818.565V0.173374H847.071V-28.342Z" stroke="#DDDDDD" stroke-width="1.5"/>
<path d="M875.578 -28.342H847.071V0.173374H875.578V-28.342Z" stroke="#DDDDDD" stroke-width="1.5"/>
<path d="M904.084 -28.342H875.578V0.173374H904.084V-28.342Z" stroke="#DDDDDD" stroke-width="1.5"/>
<path d="M932.591 -28.342H904.084V0.173374H932.591V-28.342Z" stroke="#DDDDDD" stroke-width="1.5"/>
<path d="M961.097 -28.342H932.591V0.173374H961.097V-28.342Z" stroke="#DDDDDD" stroke-width="1.5"/>
<path d="M989.604 -28.342H961.097V0.173374H989.604V-28.342Z" stroke="#DDDDDD" stroke-width="1.5"/>
<path d="M1018.11 -28.342H989.604V0.173374H1018.11V-28.342Z" stroke="#DDDDDD" stroke-width="1.5"/>
<path d="M1046.62 -28.342H1018.11V0.173374H1046.62V-28.342Z" stroke="#DDDDDD" stroke-width="1.5"/>
<path d="M1075.12 -28.342H1046.62V0.173374H1075.12V-28.342Z" fill="#E2E7F0" fill-opacity="0.3" stroke="#DDDDDD" stroke-width="1.5"/>
<path d="M20.3835 0.173374H-8.12292V28.6887H20.3835V0.173374Z" stroke="#DDDDDD" stroke-width="1.5"/>
<path d="M48.89 0.173374H20.3835V28.6887H48.89V0.173374Z" stroke="#DDDDDD" stroke-width="1.5"/>
<path d="M77.3965 0.173374H48.89V28.6887H77.3965V0.173374Z" stroke="#DDDDDD" stroke-width="1.5"/>
<path d="M105.903 0.173374H77.3965V28.6887H105.903V0.173374Z" stroke="#DDDDDD" stroke-width="1.5"/>
<path d="M134.409 0.173374H105.903V28.6887H134.409V0.173374Z" stroke="#DDDDDD" stroke-width="1.5"/>
<path d="M162.916 0.173374H134.409V28.6887H162.916V0.173374Z" stroke="#DDDDDD" stroke-width="1.5"/>
<path d="M191.422 0.173374H162.916V28.6887H191.422V0.173374Z" fill="#E2E7F0" fill-opacity="0.3" stroke="#DDDDDD" stroke-width="1.5"/>
<path d="M219.929 0.173374H191.422V28.6887H219.929V0.173374Z" stroke="#DDDDDD" stroke-width="1.5"/>
<path d="M333.955 0.173374H305.448V28.6887H333.955V0.173374Z" stroke="#DDDDDD" stroke-width="1.5"/>
<path d="M362.461 0.173374H333.955V28.6887H362.461V0.173374Z" stroke="#DDDDDD" stroke-width="1.5"/>
<path d="M390.968 0.173374H362.461V28.6887H390.968V0.173374Z" stroke="#DDDDDD" stroke-width="1.5"/>
<path d="M419.474 0.173374H390.968V28.6887H419.474V0.173374Z" stroke="#DDDDDD" stroke-width="1.5"/>
<path d="M447.981 0.173374H419.474V28.6887H447.981V0.173374Z" stroke="#DDDDDD" stroke-width="1.5"/>
<path d="M476.487 0.173374H447.981V28.6887H476.487V0.173374Z" stroke="#DDDDDD" stroke-width="1.5"/>
<path d="M904.084 0.173374H875.578V28.6887H904.084V0.173374Z" stroke="#DDDDDD" stroke-width="1.5"/>
<path d="M932.591 0.173374H904.084V28.6887H932.591V0.173374Z" fill="#E2E7F0" fill-opacity="0.3" stroke="#DDDDDD" stroke-width="1.5"/>
<path d="M961.097 0.173374H932.591V28.6887H961.097V0.173374Z" stroke="#DDDDDD" stroke-width="1.5"/>
<path d="M989.604 0.173374H961.097V28.6887H989.604V0.173374Z" stroke="#DDDDDD" stroke-width="1.5"/>
<path d="M1018.11 0.173374H989.604V28.6887H1018.11V0.173374Z" stroke="#DDDDDD" stroke-width="1.5"/>
<path d="M1046.62 0.173374H1018.11V28.6887H1046.62V0.173374Z" stroke="#DDDDDD" stroke-width="1.5"/>
<path d="M1075.12 0.173374H1046.62V28.6887H1075.12V0.173374Z" stroke="#DDDDDD" stroke-width="1.5"/>
<path d="M20.3835 28.6887H-8.12292V57.204H20.3835V28.6887Z" stroke="#DDDDDD" stroke-width="1.5"/>
<path d="M48.89 28.6887H20.3835V57.204H48.89V28.6887Z" stroke="#DDDDDD" stroke-width="1.5"/>
<path d="M77.3965 28.6887H48.89V57.204H77.3965V28.6887Z" stroke="#DDDDDD" stroke-width="1.5"/>
<path d="M105.903 28.6887H77.3965V57.204H105.903V28.6887Z" stroke="#DDDDDD" stroke-width="1.5"/>
<path d="M134.409 28.6887H105.903V57.204H134.409V28.6887Z" stroke="#DDDDDD" stroke-width="1.5"/>
<path d="M162.916 28.6887H134.409V57.204H162.916V28.6887Z" stroke="#DDDDDD" stroke-width="1.5"/>
<path d="M333.955 28.6887H305.448V57.204H333.955V28.6887Z" stroke="#DDDDDD" stroke-width="1.5"/>
<path d="M619.019 28.6887H590.513V57.204H619.019V28.6887Z" stroke="#DDDDDD" stroke-width="1.5"/>
<path d="M647.526 28.6887H619.019V57.204H647.526V28.6887Z" stroke="#DDDDDD" stroke-width="1.5"/>
<path d="M676.032 28.6887H647.526V57.204H676.032V28.6887Z" stroke="#DDDDDD" stroke-width="1.5"/>
<path d="M704.539 28.6887H676.032V57.204H704.539V28.6887Z" stroke="#DDDDDD" stroke-width="1.5"/>
<path d="M733.045 28.6887H704.539V57.204H733.045V28.6887Z" stroke="#DDDDDD" stroke-width="1.5"/>
<path d="M761.552 28.6887H733.045V57.204H761.552V28.6887Z" stroke="#DDDDDD" stroke-width="1.5"/>
<path d="M790.058 28.6887H761.552V57.204H790.058V28.6887Z" stroke="#DDDDDD" stroke-width="1.5"/>
<path d="M961.097 28.6887H932.591V57.204H961.097V28.6887Z" stroke="#DDDDDD" stroke-width="1.5"/>
<path d="M989.604 28.6887H961.097V57.204H989.604V28.6887Z" stroke="#DDDDDD" stroke-width="1.5"/>
<path d="M1018.11 28.6887H989.604V57.204H1018.11V28.6887Z" stroke="#DDDDDD" stroke-width="1.5"/>
<path d="M1046.62 28.6887H1018.11V57.204H1046.62V28.6887Z" stroke="#DDDDDD" stroke-width="1.5"/>
<path d="M1075.12 28.6887H1046.62V57.204H1075.12V28.6887Z" stroke="#DDDDDD" stroke-width="1.5"/>
<path d="M20.3835 57.204H-8.12292V85.7193H20.3835V57.204Z" stroke="#DDDDDD" stroke-width="1.5"/>
<path d="M48.89 57.204H20.3835V85.7193H48.89V57.204Z" stroke="#DDDDDD" stroke-width="1.5"/>
<path d="M77.3965 57.204H48.89V85.7193H77.3965V57.204Z" stroke="#DDDDDD" stroke-width="1.5"/>
<path d="M105.903 57.204H77.3965V85.7193H105.903V57.204Z" stroke="#DDDDDD" stroke-width="1.5"/>
<path d="M134.409 57.204H105.903V85.7193H134.409V57.204Z" stroke="#DDDDDD" stroke-width="1.5"/>
<path d="M162.916 57.204H134.409V85.7193H162.916V57.204Z" stroke="#DDDDDD" stroke-width="1.5"/>
<path d="M191.422 57.204H162.916V85.7193H191.422V57.204Z" stroke="#DDDDDD" stroke-width="1.5"/>
<path d="M219.929 57.204H191.422V85.7193H219.929V57.204Z" stroke="#DDDDDD" stroke-width="1.5"/>
<path d="M790.058 57.204H761.552V85.7193H790.058V57.204Z" stroke="#DDDDDD" stroke-width="1.5"/>
<path d="M847.071 57.204H818.565V85.7193H847.071V57.204Z" fill="#E2E7F0" fill-opacity="0.3" stroke="#DDDDDD" stroke-width="1.5"/>
<path d="M875.578 57.204H847.071V85.7193H875.578V57.204Z" stroke="#DDDDDD" stroke-width="1.5"/>
<path d="M904.084 57.204H875.578V85.7193H904.084V57.204Z" stroke="#DDDDDD" stroke-width="1.5"/>
<path d="M932.591 57.204H904.084V85.7193H932.591V57.204Z" stroke="#DDDDDD" stroke-width="1.5"/>
<path d="M961.097 57.204H932.591V85.7193H961.097V57.204Z" stroke="#DDDDDD" stroke-width="1.5"/>
<path d="M989.604 57.204H961.097V85.7193H989.604V57.204Z" fill="#E2E7F0" fill-opacity="0.3" stroke="#DDDDDD" stroke-width="1.5"/>
<path d="M1018.11 57.204H989.604V85.7193H1018.11V57.204Z" stroke="#DDDDDD" stroke-width="1.5"/>
<path d="M1046.62 57.204H1018.11V85.7193H1046.62V57.204Z" stroke="#DDDDDD" stroke-width="1.5"/>
<path d="M1075.12 57.204H1046.62V85.7193H1075.12V57.204Z" fill="#E2E7F0" fill-opacity="0.3" stroke="#DDDDDD" stroke-width="1.5"/>
<path d="M20.3835 85.7193H-8.12292V114.235H20.3835V85.7193Z" stroke="#DDDDDD" stroke-width="1.5"/>
<path d="M48.89 85.7193H20.3835V114.235H48.89V85.7193Z" fill="#E2E7F0" fill-opacity="0.3" stroke="#DDDDDD" stroke-width="1.5"/>
<path d="M77.3965 85.7193H48.89V114.235H77.3965V85.7193Z" stroke="#DDDDDD" stroke-width="1.5"/>
<path d="M191.422 85.7193H162.916V114.235H191.422V85.7193Z" fill="#E2E7F0" fill-opacity="0.3" stroke="#DDDDDD" stroke-width="1.5"/>
<path d="M219.929 85.7193H191.422V114.235H219.929V85.7193Z" stroke="#DDDDDD" stroke-width="1.5"/>
<path d="M276.942 85.7193H248.435V114.235H276.942V85.7193Z" stroke="#DDDDDD" stroke-width="1.5"/>
<path d="M790.058 85.7193H761.552V114.235H790.058V85.7193Z" stroke="#DDDDDD" stroke-width="1.5"/>
<path d="M818.565 85.7193H790.058V114.235H818.565V85.7193Z" stroke="#DDDDDD" stroke-width="1.5"/>
<path d="M904.084 85.7193H875.578V114.235H904.084V85.7193Z" stroke="#DDDDDD" stroke-width="1.5"/>
<path d="M932.591 85.7193H904.084V114.235H932.591V85.7193Z" stroke="#DDDDDD" stroke-width="1.5"/>
<path d="M961.097 85.7193H932.591V114.235H961.097V85.7193Z" stroke="#DDDDDD" stroke-width="1.5"/>
<path d="M1075.12 85.7193H1046.62V114.235H1075.12V85.7193Z" stroke="#DDDDDD" stroke-width="1.5"/>
<path d="M20.3835 114.235H-8.12292V142.75H20.3835V114.235Z" stroke="#DDDDDD" stroke-width="1.5"/>
<path d="M48.89 114.235H20.3835V142.75H48.89V114.235Z" stroke="#DDDDDD" stroke-width="1.5"/>
<path d="M77.3965 114.235H48.89V142.75H77.3965V114.235Z" stroke="#DDDDDD" stroke-width="1.5"/>
<path d="M105.903 114.235H77.3965V142.75H105.903V114.235Z" stroke="#DDDDDD" stroke-width="1.5"/>
<path d="M134.409 114.235H105.903V142.75H134.409V114.235Z" stroke="#DDDDDD" stroke-width="1.5"/>
<path d="M162.916 114.235H134.409V142.75H162.916V114.235Z" stroke="#DDDDDD" stroke-width="1.5"/>
<path d="M305.448 114.235H276.942V142.75H305.448V114.235Z" stroke="#DDDDDD" stroke-width="1.5"/>
<path d="M333.955 114.235H305.448V142.75H333.955V114.235Z" stroke="#DDDDDD" stroke-width="1.5"/>
<path d="M619.019 114.235H590.513V142.75H619.019V114.235Z" stroke="#DDDDDD" stroke-width="1.5"/>
<path d="M647.526 114.235H619.019V142.75H647.526V114.235Z" stroke="#DDDDDD" stroke-width="1.5"/>
<path d="M676.032 114.235H647.526V142.75H676.032V114.235Z" stroke="#DDDDDD" stroke-width="1.5"/>
<path d="M704.539 114.235H676.032V142.75H704.539V114.235Z" stroke="#DDDDDD" stroke-width="1.5"/>
<path d="M733.045 114.235H704.539V142.75H733.045V114.235Z" stroke="#DDDDDD" stroke-width="1.5"/>
<path d="M761.552 114.235H733.045V142.75H761.552V114.235Z" stroke="#DDDDDD" stroke-width="1.5"/>
<path d="M818.565 114.235H790.058V142.75H818.565V114.235Z" stroke="#DDDDDD" stroke-width="1.5"/>
<path d="M847.071 114.235H818.565V142.75H847.071V114.235Z" fill="#E2E7F0" fill-opacity="0.3" stroke="#DDDDDD" stroke-width="1.5"/>
<path d="M961.097 114.235H932.591V142.75H961.097V114.235Z" stroke="#DDDDDD" stroke-width="1.5"/>
<path d="M989.604 114.235H961.097V142.75H989.604V114.235Z" stroke="#DDDDDD" stroke-width="1.5"/>
<path d="M1018.11 114.235H989.604V142.75H1018.11V114.235Z" stroke="#DDDDDD" stroke-width="1.5"/>
<path d="M1046.62 114.235H1018.11V142.75H1046.62V114.235Z" stroke="#DDDDDD" stroke-width="1.5"/>
<path d="M1075.12 114.235H1046.62V142.75H1075.12V114.235Z" stroke="#DDDDDD" stroke-width="1.5"/>
<path d="M20.3835 142.75H-8.12292V171.265H20.3835V142.75Z" stroke="#DDDDDD" stroke-width="1.5"/>
<path d="M48.89 142.75H20.3835V171.265H48.89V142.75Z" stroke="#DDDDDD" stroke-width="1.5"/>
<path d="M77.3965 142.75H48.89V171.265H77.3965V142.75Z" stroke="#DDDDDD" stroke-width="1.5"/>
<path d="M105.903 142.75H77.3965V171.265H105.903V142.75Z" stroke="#DDDDDD" stroke-width="1.5"/>
<path d="M134.409 142.75H105.903V171.265H134.409V142.75Z" stroke="#DDDDDD" stroke-width="1.5"/>
<path d="M162.916 142.75H134.409V171.265H162.916V142.75Z" stroke="#DDDDDD" stroke-width="1.5"/>
<path d="M191.422 142.75H162.916V171.265H191.422V142.75Z" stroke="#DDDDDD" stroke-width="1.5"/>
<path d="M219.929 142.75H191.422V171.265H219.929V142.75Z" stroke="#DDDDDD" stroke-width="1.5"/>
<path d="M875.578 142.75H847.071V171.265H875.578V142.75Z" stroke="#DDDDDD" stroke-width="1.5"/>
<path d="M904.084 142.75H875.578V171.265H904.084V142.75Z" stroke="#DDDDDD" stroke-width="1.5"/>
<path d="M932.591 142.75H904.084V171.265H932.591V142.75Z" stroke="#DDDDDD" stroke-width="1.5"/>
<path d="M961.097 142.75H932.591V171.265H961.097V142.75Z" stroke="#DDDDDD" stroke-width="1.5"/>
<path d="M989.604 142.75H961.097V171.265H989.604V142.75Z" fill="#E2E7F0" fill-opacity="0.3" stroke="#DDDDDD" stroke-width="1.5"/>
<path d="M1018.11 142.75H989.604V171.265H1018.11V142.75Z" stroke="#DDDDDD" stroke-width="1.5"/>
<path d="M1046.62 142.75H1018.11V171.265H1046.62V142.75Z" stroke="#DDDDDD" stroke-width="1.5"/>
<path d="M1075.12 142.75H1046.62V171.265H1075.12V142.75Z" stroke="#DDDDDD" stroke-width="1.5"/>
<path d="M20.3835 171.265H-8.12292V199.781H20.3835V171.265Z" fill="#E2E7F0" fill-opacity="0.3" stroke="#DDDDDD" stroke-width="1.5"/>
<path d="M48.89 171.265H20.3835V199.781H48.89V171.265Z" stroke="#DDDDDD" stroke-width="1.5"/>
<path d="M77.3965 171.265H48.89V199.781H77.3965V171.265Z" stroke="#DDDDDD" stroke-width="1.5"/>
<path d="M191.422 171.265H162.916V199.781H191.422V171.265Z" fill="#E2E7F0" fill-opacity="0.3" stroke="#DDDDDD" stroke-width="1.5"/>
<path d="M219.929 171.265H191.422V199.781H219.929V171.265Z" stroke="#DDDDDD" stroke-width="1.5"/>
<path d="M276.942 171.265H248.435V199.781H276.942V171.265Z" stroke="#DDDDDD" stroke-width="1.5"/>
<path d="M305.448 171.265H276.942V199.781H305.448V171.265Z" stroke="#DDDDDD" stroke-width="1.5"/>
<path d="M847.071 171.265H818.565V199.781H847.071V171.265Z" stroke="#DDDDDD" stroke-width="1.5"/>
<path d="M875.578 171.265H847.071V199.781H875.578V171.265Z" fill="#E2E7F0" fill-opacity="0.3" stroke="#DDDDDD" stroke-width="1.5"/>
<path d="M904.084 171.265H875.578V199.781H904.084V171.265Z" stroke="#DDDDDD" stroke-width="1.5"/>
<path d="M932.591 171.265H904.084V199.781H932.591V171.265Z" stroke="#DDDDDD" stroke-width="1.5"/>
<path d="M961.097 171.265H932.591V199.781H961.097V171.265Z" stroke="#DDDDDD" stroke-width="1.5"/>
<path d="M1075.12 171.265H1046.62V199.781H1075.12V171.265Z" stroke="#DDDDDD" stroke-width="1.5"/>
<path d="M20.3835 199.781H-8.12292V228.296H20.3835V199.781Z" stroke="#DDDDDD" stroke-width="1.5"/>
<path d="M48.89 199.781H20.3835V228.296H48.89V199.781Z" stroke="#DDDDDD" stroke-width="1.5"/>
<path d="M77.3965 199.781H48.89V228.296H77.3965V199.781Z" stroke="#DDDDDD" stroke-width="1.5"/>
<path d="M105.903 199.781H77.3965V228.296H105.903V199.781Z" stroke="#DDDDDD" stroke-width="1.5"/>
<path d="M134.409 199.781H105.903V228.296H134.409V199.781Z" stroke="#DDDDDD" stroke-width="1.5"/>
<path d="M162.916 199.781H134.409V228.296H162.916V199.781Z" fill="#E2E7F0" fill-opacity="0.3" stroke="#DDDDDD" stroke-width="1.5"/>
<path d="M305.448 199.781H276.942V228.296H305.448V199.781Z" stroke="#DDDDDD" stroke-width="1.5"/>
<path d="M333.955 199.781H305.448V228.296H333.955V199.781Z" stroke="#DDDDDD" stroke-width="1.5"/>
<path d="M619.019 199.781H590.513V228.296H619.019V199.781Z" stroke="#DDDDDD" stroke-width="1.5"/>
<path d="M647.526 199.781H619.019V228.296H647.526V199.781Z" stroke="#DDDDDD" stroke-width="1.5"/>
<path d="M676.032 199.781H647.526V228.296H676.032V199.781Z" stroke="#DDDDDD" stroke-width="1.5"/>
<path d="M704.539 199.781H676.032V228.296H704.539V199.781Z" stroke="#DDDDDD" stroke-width="1.5"/>
<path d="M733.045 199.781H704.539V228.296H733.045V199.781Z" stroke="#DDDDDD" stroke-width="1.5"/>
<path d="M761.552 199.781H733.045V228.296H761.552V199.781Z" stroke="#DDDDDD" stroke-width="1.5"/>
<path d="M790.058 199.781H761.552V228.296H790.058V199.781Z" stroke="#DDDDDD" stroke-width="1.5"/>
<path d="M818.565 199.781H790.058V228.296H818.565V199.781Z" stroke="#DDDDDD" stroke-width="1.5"/>
<path d="M989.604 199.781H961.097V228.296H989.604V199.781Z" stroke="#DDDDDD" stroke-width="1.5"/>
<path d="M1018.11 199.781H989.604V228.296H1018.11V199.781Z" stroke="#DDDDDD" stroke-width="1.5"/>
<path d="M1046.62 199.781H1018.11V228.296H1046.62V199.781Z" stroke="#DDDDDD" stroke-width="1.5"/>
<path d="M1075.12 199.781H1046.62V228.296H1075.12V199.781Z" stroke="#DDDDDD" stroke-width="1.5"/>
<path d="M20.3835 228.296H-8.12292V256.811H20.3835V228.296Z" stroke="#DDDDDD" stroke-width="1.5"/>
<path d="M48.89 228.296H20.3835V256.811H48.89V228.296Z" stroke="#DDDDDD" stroke-width="1.5"/>
<path d="M77.3965 228.296H48.89V256.811H77.3965V228.296Z" stroke="#DDDDDD" stroke-width="1.5"/>
<path d="M105.903 228.296H77.3965V256.811H105.903V228.296Z" fill="#E2E7F0" fill-opacity="0.3" stroke="#DDDDDD" stroke-width="1.5"/>
<path d="M134.409 228.296H105.903V256.811H134.409V228.296Z" stroke="#DDDDDD" stroke-width="1.5"/>
<path d="M162.916 228.296H134.409V256.811H162.916V228.296Z" stroke="#DDDDDD" stroke-width="1.5"/>
<path d="M191.422 228.296H162.916V256.811H191.422V228.296Z" stroke="#DDDDDD" stroke-width="1.5"/>
<path d="M219.929 228.296H191.422V256.811H219.929V228.296Z" stroke="#DDDDDD" stroke-width="1.5"/>
<path d="M305.448 228.296H276.942V256.811H305.448V228.296Z" stroke="#DDDDDD" stroke-width="1.5"/>
<path d="M818.565 228.296H790.058V256.811H818.565V228.296Z" stroke="#DDDDDD" stroke-width="1.5"/>
<path d="M847.071 228.296H818.565V256.811H847.071V228.296Z" stroke="#DDDDDD" stroke-width="1.5"/>
<path d="M989.604 228.296H961.097V256.811H989.604V228.296Z" stroke="#DDDDDD" stroke-width="1.5"/>
<path d="M1018.11 228.296H989.604V256.811H1018.11V228.296Z" stroke="#DDDDDD" stroke-width="1.5"/>
<path d="M1046.62 228.296H1018.11V256.811H1046.62V228.296Z" fill="#E2E7F0" fill-opacity="0.3" stroke="#DDDDDD" stroke-width="1.5"/>
<path d="M1075.12 228.296H1046.62V256.811H1075.12V228.296Z" stroke="#DDDDDD" stroke-width="1.5"/>
<path d="M20.3835 256.811H-8.12292V285.327H20.3835V256.811Z" stroke="#DDDDDD" stroke-width="1.5"/>
<path d="M105.903 256.811H77.3965V285.327H105.903V256.811Z" stroke="#DDDDDD" stroke-width="1.5"/>
<path d="M191.422 256.811H162.916V285.327H191.422V256.811Z" stroke="#DDDDDD" stroke-width="1.5"/>
<path d="M219.929 256.811H191.422V285.327H219.929V256.811Z" fill="#E2E7F0" fill-opacity="0.3" stroke="#DDDDDD" stroke-width="1.5"/>
<path d="M333.955 256.811H305.448V285.327H333.955V256.811Z" stroke="#DDDDDD" stroke-width="1.5"/>
<path d="M362.461 256.811H333.955V285.327H362.461V256.811Z" stroke="#DDDDDD" stroke-width="1.5"/>
<path d="M390.968 256.811H362.461V285.327H390.968V256.811Z" stroke="#DDDDDD" stroke-width="1.5"/>
<path d="M419.474 256.811H390.968V285.327H419.474V256.811Z" fill="#E2E7F0" fill-opacity="0.3" stroke="#DDDDDD" stroke-width="1.5"/>
<path d="M447.981 256.811H419.474V285.327H447.981V256.811Z" stroke="#DDDDDD" stroke-width="1.5"/>
<path d="M476.487 256.811H447.981V285.327H476.487V256.811Z" stroke="#DDDDDD" stroke-width="1.5"/>
<path d="M790.058 256.811H761.552V285.327H790.058V256.811Z" stroke="#DDDDDD" stroke-width="1.5"/>
<path opacity="0.99" d="M818.565 256.811H790.058V285.327H818.565V256.811Z" stroke="#DDDDDD" stroke-width="1.5"/>
<path d="M904.084 256.811H875.578V285.327H904.084V256.811Z" stroke="#DDDDDD" stroke-width="1.5"/>
<path d="M932.591 256.811H904.084V285.327H932.591V256.811Z" stroke="#DDDDDD" stroke-width="1.5"/>
<path d="M961.097 256.811H932.591V285.327H961.097V256.811Z" stroke="#DDDDDD" stroke-width="1.5"/>
<path d="M1075.12 256.811H1046.62V285.327H1075.12V256.811Z" stroke="#DDDDDD" stroke-width="1.5"/>
<path d="M20.3835 285.327H-8.12292V313.842H20.3835V285.327Z" stroke="#DDDDDD" stroke-width="1.5"/>
<path d="M48.89 285.327H20.3835V313.842H48.89V285.327Z" stroke="#DDDDDD" stroke-width="1.5"/>
<path d="M77.3965 285.327H48.89V313.842H77.3965V285.327Z" stroke="#DDDDDD" stroke-width="1.5"/>
<path d="M105.903 285.327H77.3965V313.842H105.903V285.327Z" stroke="#DDDDDD" stroke-width="1.5"/>
<path d="M134.409 285.327H105.903V313.842H134.409V285.327Z" stroke="#DDDDDD" stroke-width="1.5"/>
<path d="M419.474 285.327H390.968V313.842H419.474V285.327Z" stroke="#DDDDDD" stroke-width="1.5"/>
<path d="M447.981 285.327H419.474V313.842H447.981V285.327Z" stroke="#DDDDDD" stroke-width="1.5"/>
<path d="M476.487 285.327H447.981V313.842H476.487V285.327Z" stroke="#DDDDDD" stroke-width="1.5"/>
<path d="M676.032 285.327H647.526V313.842H676.032V285.327Z" stroke="#DDDDDD" stroke-width="1.5"/>
<path d="M704.539 285.327H676.032V313.842H704.539V285.327Z" stroke="#DDDDDD" stroke-width="1.5"/>
<path d="M733.045 285.327H704.539V313.842H733.045V285.327Z" stroke="#DDDDDD" stroke-width="1.5"/>
<path d="M761.552 285.327H733.045V313.842H761.552V285.327Z" stroke="#DDDDDD" stroke-width="1.5"/>
<path d="M790.058 285.327H761.552V313.842H790.058V285.327Z" fill="#E2E7F0" fill-opacity="0.3" stroke="#DDDDDD" stroke-width="1.5"/>
<path d="M818.565 285.327H790.058V313.842H818.565V285.327Z" stroke="#DDDDDD" stroke-width="1.5"/>
<path d="M847.071 285.327H818.565V313.842H847.071V285.327Z" stroke="#DDDDDD" stroke-width="1.5"/>
<path d="M904.084 285.327H875.578V313.842H904.084V285.327Z" stroke="#DDDDDD" stroke-width="1.5"/>
<path d="M932.591 285.327H904.084V313.842H932.591V285.327Z" stroke="#DDDDDD" stroke-width="1.5"/>
<path d="M961.097 285.327H932.591V313.842H961.097V285.327Z" stroke="#DDDDDD" stroke-width="1.5"/>
<path d="M989.604 285.327H961.097V313.842H989.604V285.327Z" fill="#E2E7F0" fill-opacity="0.3" stroke="#DDDDDD" stroke-width="1.5"/>
<path d="M1018.11 285.327H989.604V313.842H1018.11V285.327Z" stroke="#DDDDDD" stroke-width="1.5"/>
<path d="M1046.62 285.327H1018.11V313.842H1046.62V285.327Z" stroke="#DDDDDD" stroke-width="1.5"/>
<path d="M1075.12 285.327H1046.62V313.842H1075.12V285.327Z" stroke="#DDDDDD" stroke-width="1.5"/>
<path d="M20.3835 313.842H-8.12292V342.357H20.3835V313.842Z" stroke="#DDDDDD" stroke-width="1.5"/>
<path d="M48.89 313.842H20.3835V342.357H48.89V313.842Z" stroke="#DDDDDD" stroke-width="1.5"/>
<path d="M77.3965 313.842H48.89V342.357H77.3965V313.842Z" fill="#E2E7F0" fill-opacity="0.3" stroke="#DDDDDD" stroke-width="1.5"/>
<path d="M105.903 313.842H77.3965V342.357H105.903V313.842Z" stroke="#DDDDDD" stroke-width="1.5"/>
<path d="M134.409 313.842H105.903V342.357H134.409V313.842Z" stroke="#DDDDDD" stroke-width="1.5"/>
<path d="M162.916 313.842H134.409V342.357H162.916V313.842Z" stroke="#DDDDDD" stroke-width="1.5"/>
<path d="M191.422 313.842H162.916V342.357H191.422V313.842Z" stroke="#DDDDDD" stroke-width="1.5"/>
<path d="M219.929 313.842H191.422V342.357H219.929V313.842Z" stroke="#DDDDDD" stroke-width="1.5"/>
<path d="M248.435 313.842H219.929V342.357H248.435V313.842Z" stroke="#DDDDDD" stroke-width="1.5"/>
<path d="M276.942 313.842H248.435V342.357H276.942V313.842Z" stroke="#DDDDDD" stroke-width="1.5"/>
<path d="M305.448 313.842H276.942V342.357H305.448V313.842Z" stroke="#DDDDDD" stroke-width="1.5"/>
<path d="M333.955 313.842H305.448V342.357H333.955V313.842Z" stroke="#DDDDDD" stroke-width="1.5"/>
<path d="M362.461 313.842H333.955V342.357H362.461V313.842Z" fill="#E2E7F0" fill-opacity="0.3" stroke="#DDDDDD" stroke-width="1.5"/>
<path d="M619.019 313.842H590.513V342.357H619.019V313.842Z" stroke="#DDDDDD" stroke-width="1.5"/>
<path d="M647.526 313.842H619.019V342.357H647.526V313.842Z" stroke="#DDDDDD" stroke-width="1.5"/>
<path d="M676.032 313.842H647.526V342.357H676.032V313.842Z" stroke="#DDDDDD" stroke-width="1.5"/>
<path d="M704.539 313.842H676.032V342.357H704.539V313.842Z" stroke="#DDDDDD" stroke-width="1.5"/>
<path d="M733.045 313.842H704.539V342.357H733.045V313.842Z" fill="#E2E7F0" fill-opacity="0.3" stroke="#DDDDDD" stroke-width="1.5"/>
<path d="M761.552 313.842H733.045V342.357H761.552V313.842Z" stroke="#DDDDDD" stroke-width="1.5"/>
<path d="M790.058 313.842H761.552V342.357H790.058V313.842Z" stroke="#DDDDDD" stroke-width="1.5"/>
<path d="M818.565 313.842H790.058V342.357H818.565V313.842Z" stroke="#DDDDDD" stroke-width="1.5"/>
<path d="M847.071 313.842H818.565V342.357H847.071V313.842Z" stroke="#DDDDDD" stroke-width="1.5"/>
<path d="M875.578 313.842H847.071V342.357H875.578V313.842Z" stroke="#DDDDDD" stroke-width="1.5"/>
<path d="M904.084 313.842H875.578V342.357H904.084V313.842Z" stroke="#DDDDDD" stroke-width="1.5"/>
<path d="M932.591 313.842H904.084V342.357H932.591V313.842Z" stroke="#DDDDDD" stroke-width="1.5"/>
<path d="M961.097 313.842H932.591V342.357H961.097V313.842Z" stroke="#DDDDDD" stroke-width="1.5"/>
<path d="M989.604 313.842H961.097V342.357H989.604V313.842Z" stroke="#DDDDDD" stroke-width="1.5"/>
<path d="M1018.11 313.842H989.604V342.357H1018.11V313.842Z" stroke="#DDDDDD" stroke-width="1.5"/>
<path d="M1046.62 313.842H1018.11V342.357H1046.62V313.842Z" stroke="#DDDDDD" stroke-width="1.5"/>
<path d="M1075.12 313.842H1046.62V342.357H1075.12V313.842Z" stroke="#DDDDDD" stroke-width="1.5"/>
<path d="M20.3835 342.357H-8.12292V370.873H20.3835V342.357Z" stroke="#DDDDDD" stroke-width="1.5"/>
<path d="M48.89 342.357H20.3835V370.873H48.89V342.357Z" stroke="#DDDDDD" stroke-width="1.5"/>
<path d="M77.3965 342.357H48.89V370.873H77.3965V342.357Z" stroke="#DDDDDD" stroke-width="1.5"/>
<path d="M105.903 342.357H77.3965V370.873H105.903V342.357Z" stroke="#DDDDDD" stroke-width="1.5"/>
<path d="M134.409 342.357H105.903V370.873H134.409V342.357Z" stroke="#DDDDDD" stroke-width="1.5"/>
<path d="M619.019 342.357H590.513V370.873H619.019V342.357Z" stroke="#DDDDDD" stroke-width="1.5"/>
<path d="M647.526 342.357H619.019V370.873H647.526V342.357Z" stroke="#DDDDDD" stroke-width="1.5"/>
<path d="M676.032 342.357H647.526V370.873H676.032V342.357Z" stroke="#DDDDDD" stroke-width="1.5"/>
<path d="M704.539 342.357H676.032V370.873H704.539V342.357Z" stroke="#DDDDDD" stroke-width="1.5"/>
<path d="M733.045 342.357H704.539V370.873H733.045V342.357Z" stroke="#DDDDDD" stroke-width="1.5"/>
<path d="M761.552 342.357H733.045V370.873H761.552V342.357Z" stroke="#DDDDDD" stroke-width="1.5"/>
<path d="M790.058 342.357H761.552V370.873H790.058V342.357Z" stroke="#DDDDDD" stroke-width="1.5"/>
<path d="M818.565 342.357H790.058V370.873H818.565V342.357Z" stroke="#DDDDDD" stroke-width="1.5"/>
<path d="M989.604 342.357H961.097V370.873H989.604V342.357Z" stroke="#DDDDDD" stroke-width="1.5"/>
<path d="M1018.11 342.357H989.604V370.873H1018.11V342.357Z" stroke="#DDDDDD" stroke-width="1.5"/>
<path d="M1046.62 342.357H1018.11V370.873H1046.62V342.357Z" stroke="#DDDDDD" stroke-width="1.5"/>
<path d="M1075.12 342.357H1046.62V370.873H1075.12V342.357Z" stroke="#DDDDDD" stroke-width="1.5"/>
<path d="M20.3835 370.873H-8.12292V399.388H20.3835V370.873Z" stroke="#DDDDDD" stroke-width="1.5"/>
<path d="M48.89 370.873H20.3835V399.388H48.89V370.873Z" stroke="#DDDDDD" stroke-width="1.5"/>
<path d="M77.3965 370.873H48.89V399.388H77.3965V370.873Z" stroke="#DDDDDD" stroke-width="1.5"/>
<path d="M105.903 370.873H77.3965V399.388H105.903V370.873Z" stroke="#DDDDDD" stroke-width="1.5"/>
<path d="M134.409 370.873H105.903V399.388H134.409V370.873Z" stroke="#DDDDDD" stroke-width="1.5"/>
<path d="M162.916 370.873H134.409V399.388H162.916V370.873Z" stroke="#DDDDDD" stroke-width="1.5"/>
<path d="M191.422 370.873H162.916V399.388H191.422V370.873Z" stroke="#DDDDDD" stroke-width="1.5"/>
<path d="M219.929 370.873H191.422V399.388H219.929V370.873Z" stroke="#DDDDDD" stroke-width="1.5"/>
<path d="M276.942 370.873H248.435V399.388H276.942V370.873Z" stroke="#DDDDDD" stroke-width="1.5"/>
<path d="M305.448 370.873H276.942V399.388H305.448V370.873Z" stroke="#DDDDDD" stroke-width="1.5"/>
<path d="M333.955 370.873H305.448V399.388H333.955V370.873Z" stroke="#DDDDDD" stroke-width="1.5"/>
<path d="M362.461 370.873H333.955V399.388H362.461V370.873Z" stroke="#DDDDDD" stroke-width="1.5"/>
<path d="M562.006 370.873H533.5V399.388H562.006V370.873Z" stroke="#DDDDDD" stroke-width="1.5"/>
<path d="M590.513 370.873H562.006V399.388H590.513V370.873Z" stroke="#DDDDDD" stroke-width="1.5"/>
<path d="M619.019 370.873H590.513V399.388H619.019V370.873Z" stroke="#DDDDDD" stroke-width="1.5"/>
<path d="M647.526 370.873H619.019V399.388H647.526V370.873Z" stroke="#DDDDDD" stroke-width="1.5"/>
<path d="M676.032 370.873H647.526V399.388H676.032V370.873Z" stroke="#DDDDDD" stroke-width="1.5"/>
<path d="M704.539 370.873H676.032V399.388H704.539V370.873Z" stroke="#DDDDDD" stroke-width="1.5"/>
<path d="M733.045 370.873H704.539V399.388H733.045V370.873Z" stroke="#DDDDDD" stroke-width="1.5"/>
<path d="M790.058 370.873H761.552V399.388H790.058V370.873Z" stroke="#DDDDDD" stroke-width="1.5"/>
<path d="M847.071 370.873H818.565V399.388H847.071V370.873Z" fill="#E2E7F0" fill-opacity="0.3" stroke="#DDDDDD" stroke-width="1.5"/>
<path d="M875.578 370.873H847.071V399.388H875.578V370.873Z" stroke="#DDDDDD" stroke-width="1.5"/>
<path d="M1046.62 370.873H1018.11V399.388H1046.62V370.873Z" stroke="#DDDDDD" stroke-width="1.5"/>
<path d="M1075.12 370.873H1046.62V399.388H1075.12V370.873Z" fill="#E2E7F0" fill-opacity="0.3" stroke="#DDDDDD" stroke-width="1.5"/>
<path d="M20.3835 427.903V399.388H-8.12292V427.903" stroke="#DDDDDD" stroke-width="1.5"/>
<path d="M48.89 427.903V399.388H20.3835V427.903" stroke="#DDDDDD" stroke-width="1.5"/>
<path d="M77.3965 427.903V399.388H48.89V427.903" stroke="#DDDDDD" stroke-width="1.5"/>
<path d="M105.903 427.903V399.388H77.3965V427.903" stroke="#DDDDDD" stroke-width="1.5"/>
<path d="M134.409 427.903V399.388H105.903V427.903" stroke="#DDDDDD" stroke-width="1.5"/>
<path d="M162.916 427.903V399.388H134.409V427.903" stroke="#DDDDDD" stroke-width="1.5"/>
<path d="M333.955 427.903V399.388H305.448V427.903" stroke="#DDDDDD" stroke-width="1.5"/>
<path d="M362.461 427.903V399.388H333.955V427.903" stroke="#DDDDDD" stroke-width="1.5"/>
<path d="M390.968 427.903V399.388H362.461V427.903" stroke="#DDDDDD" stroke-width="1.5"/>
<path d="M419.474 427.903V399.388H390.968V427.903" stroke="#DDDDDD" stroke-width="1.5"/>
<path d="M447.981 427.903V399.388H419.474V427.903" stroke="#DDDDDD" stroke-width="1.5"/>
<path d="M476.487 427.903V399.388H447.981V427.903" stroke="#DDDDDD" stroke-width="1.5"/>
<path d="M904.084 427.903V399.388H875.578V427.903" stroke="#DDDDDD" stroke-width="1.5"/>
<path d="M932.591 427.903V399.388H904.084V427.903" stroke="#DDDDDD" stroke-width="1.5"/>
<path d="M961.097 427.903V399.388H932.591V427.903" stroke="#DDDDDD" stroke-width="1.5"/>
<path d="M989.604 427.903V399.388H961.097V427.903" stroke="#DDDDDD" stroke-width="1.5"/>
<path d="M1018.11 427.903V399.388H989.604V427.903" stroke="#DDDDDD" stroke-width="1.5"/>
<path d="M1046.62 427.903V399.388H1018.11V427.903" stroke="#DDDDDD" stroke-width="1.5"/>
<path d="M1075.12 427.903V399.388H1046.62V427.903" stroke="#DDDDDD" stroke-width="1.5"/>
<path d="M20.4713 116.428L20.4713 169.072" stroke="url(#paint0_linear_138_5)" stroke-width="1.5" stroke-linecap="round" stroke-linejoin="round"/>
<g filter="url(#filter0_d_138_5)">
<path d="M932.591 177.407V124.763" stroke="url(#paint1_linear_138_5)" stroke-width="1.5" stroke-linecap="round" stroke-linejoin="round"/>
<path d="M162.916 200V147.356" stroke="url(#paint2_linear_138_5)" stroke-width="1.5" stroke-linecap="round" stroke-linejoin="round"/>
<path d="M219.994 58.3961L219.994 111.04" stroke="url(#paint3_linear_138_5)" stroke-width="1.5" stroke-linecap="round" stroke-linejoin="round"/>
<path d="M790.091 58.3961L790.091 111.04" stroke="url(#paint4_linear_138_5)" stroke-width="1.5" stroke-linecap="round" stroke-linejoin="round"/>
</g>
<rect x="263.989" width="539.022" height="399.388" fill="url(#paint5_radial_138_5)"/>
</g>
<path d="M88.5123 347.348L79.947 332.539C79.5543 331.859 78.5864 331.302 77.7963 331.302H72.4488C71.2059 331.302 70.6963 330.427 71.3163 329.358L74.2488 324.301C74.4815 323.9 74.481 323.406 74.2475 323.005C74.0139 322.604 73.5828 322.357 73.1163 322.357H65.6565C64.8663 322.357 63.8963 322.913 63.5008 323.592L49.0052 348.488C48.6098 349.167 48.6095 350.279 49.0047 350.958L52.7345 357.37C53.3559 358.439 54.3751 358.44 54.9992 357.373L57.9137 352.391C58.5378 351.324 59.557 351.326 60.1784 352.394L62.8206 356.936C63.2157 357.616 64.1854 358.171 64.9756 358.171H82.2135C83.0038 358.171 83.9735 357.616 84.3686 356.936L88.508 349.82C88.9031 349.141 88.905 348.028 88.5123 347.348ZM76.9449 346.635C77.5624 347.706 77.0508 348.582 75.8079 348.582H62.3996C61.1567 348.582 60.6482 347.707 61.2696 346.639L67.9791 335.104C68.6005 334.036 69.6174 334.036 70.2388 335.104L76.9449 346.635Z" fill="#20294F"/>
<path d="M180.275 181.137C177.769 181.137 175.553 180.728 173.627 179.909C171.718 179.074 170.218 177.813 169.127 176.125C168.036 174.438 167.491 172.29 167.491 169.682C167.491 167.534 167.857 165.702 168.59 164.185C169.323 162.651 170.346 161.398 171.658 160.426C172.971 159.455 174.496 158.713 176.235 158.202C177.991 157.691 179.883 157.358 181.911 157.205C184.11 157.034 185.874 156.83 187.204 156.591C188.55 156.336 189.522 155.986 190.119 155.543C190.715 155.083 191.013 154.478 191.013 153.728V153.625C191.013 152.603 190.621 151.818 189.837 151.273C189.053 150.728 188.048 150.455 186.82 150.455C185.474 150.455 184.374 150.753 183.522 151.35C182.687 151.929 182.184 152.824 182.013 154.034H169.025C169.195 151.648 169.954 149.449 171.3 147.438C172.664 145.409 174.65 143.79 177.258 142.58C179.866 141.353 183.121 140.739 187.025 140.739C189.837 140.739 192.36 141.071 194.593 141.736C196.826 142.384 198.727 143.296 200.295 144.472C201.863 145.631 203.056 146.995 203.874 148.563C204.709 150.114 205.127 151.801 205.127 153.625V180.523H191.934V175H191.627C190.843 176.466 189.888 177.651 188.763 178.554C187.655 179.458 186.386 180.114 184.954 180.523C183.539 180.932 181.979 181.137 180.275 181.137ZM184.877 172.239C185.951 172.239 186.957 172.017 187.894 171.574C188.849 171.131 189.624 170.492 190.221 169.657C190.817 168.821 191.116 167.807 191.116 166.614V163.341C190.741 163.495 190.34 163.639 189.914 163.776C189.505 163.912 189.062 164.04 188.584 164.159C188.124 164.279 187.63 164.389 187.102 164.492C186.59 164.594 186.053 164.688 185.491 164.773C184.4 164.943 183.505 165.225 182.806 165.617C182.124 165.992 181.613 166.461 181.272 167.023C180.948 167.568 180.786 168.182 180.786 168.864C180.786 169.955 181.17 170.79 181.937 171.37C182.704 171.949 183.684 172.239 184.877 172.239ZM224.041 141.25L229.768 153.421L235.803 141.25H249.814L239.28 160.887L250.325 180.523H236.416L229.768 168.046L223.325 180.523H209.212L220.359 160.887L209.928 141.25H224.041ZM254.832 180.523V141.25H268.945V180.523H254.832ZM261.888 137.159C259.979 137.159 258.343 136.529 256.979 135.267C255.616 134.006 254.934 132.489 254.934 130.716C254.934 128.943 255.616 127.426 256.979 126.165C258.343 124.904 259.979 124.273 261.888 124.273C263.815 124.273 265.451 124.904 266.798 126.165C268.161 127.426 268.843 128.943 268.843 130.716C268.843 132.489 268.161 134.006 266.798 135.267C265.451 136.529 263.815 137.159 261.888 137.159ZM295.057 181.239C290.795 181.239 287.148 180.395 284.114 178.708C281.079 177.003 278.753 174.634 277.133 171.6C275.514 168.549 274.704 165.012 274.704 160.989C274.704 156.966 275.514 153.438 277.133 150.404C278.753 147.353 281.079 144.983 284.114 143.296C287.148 141.591 290.795 140.739 295.057 140.739C299.318 140.739 302.966 141.591 306 143.296C309.034 144.983 311.361 147.353 312.98 150.404C314.599 153.438 315.409 156.966 315.409 160.989C315.409 165.012 314.599 168.549 312.98 171.6C311.361 174.634 309.034 177.003 306 178.708C302.966 180.395 299.318 181.239 295.057 181.239ZM295.159 170.807C296.352 170.807 297.383 170.407 298.253 169.605C299.122 168.804 299.795 167.662 300.273 166.179C300.75 164.696 300.989 162.932 300.989 160.887C300.989 158.824 300.75 157.06 300.273 155.594C299.795 154.111 299.122 152.969 298.253 152.168C297.383 151.367 296.352 150.966 295.159 150.966C293.898 150.966 292.815 151.367 291.912 152.168C291.008 152.969 290.318 154.111 289.841 155.594C289.364 157.06 289.125 158.824 289.125 160.887C289.125 162.932 289.364 164.696 289.841 166.179C290.318 167.662 291.008 168.804 291.912 169.605C292.815 170.407 293.898 170.807 295.159 170.807ZM321.136 180.523V141.25H334.534V148.716H334.943C335.761 146.262 337.159 144.318 339.136 142.887C341.114 141.455 343.466 140.739 346.193 140.739C348.954 140.739 351.332 141.472 353.327 142.938C355.321 144.387 356.523 146.313 356.932 148.716H357.341C358.006 146.313 359.42 144.387 361.585 142.938C363.75 141.472 366.29 140.739 369.204 140.739C372.972 140.739 376.023 141.949 378.358 144.37C380.71 146.79 381.886 150.012 381.886 154.034V180.523H367.773V157.614C367.773 155.892 367.338 154.546 366.469 153.574C365.599 152.586 364.432 152.091 362.966 152.091C361.517 152.091 360.366 152.586 359.514 153.574C358.679 154.546 358.261 155.892 358.261 157.614V180.523H344.761V157.614C344.761 155.892 344.327 154.546 343.457 153.574C342.588 152.586 341.42 152.091 339.954 152.091C338.983 152.091 338.148 152.313 337.449 152.756C336.75 153.199 336.204 153.838 335.812 154.674C335.437 155.492 335.25 156.472 335.25 157.614V180.523H321.136ZM414.62 154.341V164.978H390.075V154.341H414.62ZM458.917 154.034H445.928C445.86 153.233 445.579 152.543 445.084 151.963C444.59 151.384 443.951 150.941 443.167 150.634C442.4 150.31 441.548 150.148 440.61 150.148C439.4 150.148 438.36 150.37 437.491 150.813C436.621 151.256 436.195 151.887 436.212 152.705C436.195 153.284 436.442 153.821 436.954 154.316C437.482 154.81 438.496 155.193 439.996 155.466L447.974 156.898C451.996 157.631 454.988 158.867 456.948 160.605C458.925 162.327 459.923 164.637 459.94 167.534C459.923 170.33 459.087 172.759 457.434 174.821C455.798 176.867 453.556 178.452 450.709 179.577C447.88 180.685 444.65 181.239 441.019 181.239C435.019 181.239 430.323 180.012 426.931 177.557C423.556 175.103 421.673 171.864 421.28 167.841H435.292C435.479 169.086 436.093 170.049 437.133 170.73C438.19 171.395 439.519 171.728 441.121 171.728C442.417 171.728 443.482 171.506 444.317 171.063C445.17 170.62 445.604 169.989 445.621 169.171C445.604 168.421 445.229 167.824 444.496 167.381C443.78 166.938 442.655 166.58 441.121 166.307L434.167 165.08C430.161 164.381 427.161 163.051 425.167 161.091C423.173 159.131 422.184 156.608 422.201 153.523C422.184 150.796 422.9 148.486 424.349 146.594C425.815 144.685 427.903 143.236 430.613 142.247C433.34 141.242 436.57 140.739 440.303 140.739C445.979 140.739 450.454 141.915 453.727 144.267C457.016 146.62 458.746 149.875 458.917 154.034ZM473.938 195.25C472.319 195.25 470.776 195.122 469.31 194.867C467.844 194.628 466.557 194.296 465.45 193.87L468.518 183.847C469.677 184.256 470.734 184.52 471.688 184.639C472.66 184.759 473.486 184.691 474.168 184.435C474.867 184.179 475.37 183.693 475.677 182.978L475.984 182.262L462.177 141.25H476.904L483.245 168.455H483.654L490.097 141.25H504.927L490.609 183.796C489.893 185.961 488.853 187.904 487.489 189.625C486.143 191.364 484.37 192.736 482.171 193.742C479.972 194.747 477.228 195.25 473.938 195.25ZM544.839 154.034H531.85C531.782 153.233 531.501 152.543 531.006 151.963C530.512 151.384 529.873 150.941 529.089 150.634C528.322 150.31 527.469 150.148 526.532 150.148C525.322 150.148 524.282 150.37 523.413 150.813C522.543 151.256 522.117 151.887 522.134 152.705C522.117 153.284 522.364 153.821 522.876 154.316C523.404 154.81 524.418 155.193 525.918 155.466L533.896 156.898C537.918 157.631 540.91 158.867 542.87 160.605C544.847 162.327 545.844 164.637 545.861 167.534C545.844 170.33 545.009 172.759 543.356 174.821C541.719 176.867 539.478 178.452 536.631 179.577C533.802 180.685 530.572 181.239 526.941 181.239C520.941 181.239 516.245 180.012 512.853 177.557C509.478 175.103 507.594 171.864 507.202 167.841H521.214C521.401 169.086 522.015 170.049 523.055 170.73C524.111 171.395 525.441 171.728 527.043 171.728C528.339 171.728 529.404 171.506 530.239 171.063C531.092 170.62 531.526 169.989 531.543 169.171C531.526 168.421 531.151 167.824 530.418 167.381C529.702 166.938 528.577 166.58 527.043 166.307L520.089 165.08C516.083 164.381 513.083 163.051 511.089 161.091C509.094 159.131 508.106 156.608 508.123 153.523C508.106 150.796 508.822 148.486 510.271 146.594C511.736 144.685 513.825 143.236 516.535 142.247C519.262 141.242 522.492 140.739 526.225 140.739C531.901 140.739 536.376 141.915 539.648 144.267C542.938 146.62 544.668 149.875 544.839 154.034ZM565.383 128.159V180.523H551.269V128.159H565.383ZM591.494 181.239C587.233 181.239 583.585 180.395 580.551 178.708C577.517 177.003 575.19 174.634 573.571 171.6C571.952 168.549 571.142 165.012 571.142 160.989C571.142 156.966 571.952 153.438 573.571 150.404C575.19 147.353 577.517 144.983 580.551 143.296C583.585 141.591 587.233 140.739 591.494 140.739C595.756 140.739 599.403 141.591 602.437 143.296C605.472 144.983 607.798 147.353 609.418 150.404C611.037 153.438 611.847 156.966 611.847 160.989C611.847 165.012 611.037 168.549 609.418 171.6C607.798 174.634 605.472 177.003 602.437 178.708C599.403 180.395 595.756 181.239 591.494 181.239ZM591.597 170.807C592.79 170.807 593.821 170.407 594.69 169.605C595.56 168.804 596.233 167.662 596.71 166.179C597.187 164.696 597.426 162.932 597.426 160.887C597.426 158.824 597.187 157.06 596.71 155.594C596.233 154.111 595.56 152.969 594.69 152.168C593.821 151.367 592.79 150.966 591.597 150.966C590.335 150.966 589.253 151.367 588.349 152.168C587.446 152.969 586.756 154.111 586.278 155.594C585.801 157.06 585.562 158.824 585.562 160.887C585.562 162.932 585.801 164.696 586.278 166.179C586.756 167.662 587.446 168.804 588.349 169.605C589.253 170.407 590.335 170.807 591.597 170.807ZM636.494 196.068C632.557 196.068 629.182 195.506 626.369 194.381C623.574 193.273 621.401 191.739 619.849 189.779C618.315 187.836 617.454 185.603 617.267 183.08H630.869C631.006 183.915 631.347 184.588 631.892 185.1C632.437 185.611 633.136 185.978 633.989 186.199C634.858 186.438 635.829 186.557 636.903 186.557C638.727 186.557 640.236 186.114 641.429 185.228C642.639 184.341 643.244 182.739 643.244 180.421V173.773H642.835C642.324 175.103 641.54 176.236 640.483 177.174C639.426 178.094 638.156 178.801 636.673 179.296C635.19 179.773 633.562 180.012 631.79 180.012C628.994 180.012 626.42 179.364 624.068 178.068C621.733 176.773 619.858 174.719 618.443 171.907C617.045 169.094 616.347 165.421 616.347 160.887C616.347 156.148 617.079 152.296 618.545 149.33C620.028 146.364 621.937 144.191 624.273 142.81C626.625 141.429 629.097 140.739 631.687 140.739C633.631 140.739 635.335 141.08 636.801 141.762C638.267 142.426 639.494 143.321 640.483 144.446C641.472 145.554 642.222 146.773 642.733 148.103H643.04V141.25H657.153V180.421C657.153 183.745 656.293 186.566 654.571 188.884C652.866 191.219 650.463 193 647.361 194.228C644.258 195.455 640.636 196.068 636.494 196.068ZM637.006 169.989C638.301 169.989 639.409 169.631 640.329 168.915C641.267 168.182 641.983 167.142 642.477 165.796C642.989 164.432 643.244 162.796 643.244 160.887C643.244 158.943 642.989 157.282 642.477 155.901C641.983 154.503 641.267 153.438 640.329 152.705C639.409 151.955 638.301 151.58 637.006 151.58C635.71 151.58 634.602 151.955 633.682 152.705C632.778 153.438 632.079 154.503 631.585 155.901C631.108 157.282 630.869 158.943 630.869 160.887C630.869 162.83 631.108 164.483 631.585 165.847C632.079 167.193 632.778 168.225 633.682 168.941C634.602 169.639 635.71 169.989 637.006 169.989ZM690.104 154.341V164.978H665.559V154.341H690.104ZM698.503 195.25V141.25H712.515V148.103H712.822C713.333 146.773 714.083 145.554 715.072 144.446C716.06 143.321 717.288 142.426 718.753 141.762C720.219 141.08 721.924 140.739 723.867 140.739C726.458 140.739 728.921 141.429 731.256 142.81C733.609 144.191 735.518 146.364 736.984 149.33C738.467 152.296 739.208 156.148 739.208 160.887C739.208 165.421 738.501 169.179 737.086 172.162C735.688 175.145 733.813 177.37 731.461 178.836C729.126 180.301 726.56 181.034 723.765 181.034C721.924 181.034 720.279 180.736 718.83 180.139C717.398 179.526 716.171 178.699 715.148 177.659C714.143 176.603 713.367 175.409 712.822 174.08H712.617V195.25H698.503ZM712.31 160.887C712.31 162.796 712.557 164.449 713.052 165.847C713.563 167.228 714.279 168.301 715.2 169.068C716.137 169.818 717.253 170.193 718.549 170.193C719.844 170.193 720.944 169.827 721.847 169.094C722.768 168.344 723.467 167.279 723.944 165.898C724.438 164.5 724.685 162.83 724.685 160.887C724.685 158.943 724.438 157.282 723.944 155.901C723.467 154.503 722.768 153.438 721.847 152.705C720.944 151.955 719.844 151.58 718.549 151.58C717.253 151.58 716.137 151.955 715.2 152.705C714.279 153.438 713.563 154.503 713.052 155.901C712.557 157.282 712.31 158.943 712.31 160.887ZM745.121 180.523V141.25H758.825V148.716H759.234C759.95 145.955 761.084 143.935 762.635 142.657C764.203 141.378 766.035 140.739 768.132 140.739C768.746 140.739 769.351 140.79 769.947 140.892C770.561 140.978 771.149 141.105 771.712 141.276V153.318C771.013 153.08 770.152 152.901 769.129 152.782C768.106 152.662 767.229 152.603 766.496 152.603C765.115 152.603 763.871 152.918 762.763 153.549C761.672 154.162 760.811 155.032 760.18 156.157C759.55 157.264 759.234 158.568 759.234 160.068V180.523H745.121ZM793.01 181.239C788.749 181.239 785.101 180.395 782.067 178.708C779.033 177.003 776.706 174.634 775.087 171.6C773.467 168.549 772.658 165.012 772.658 160.989C772.658 156.966 773.467 153.438 775.087 150.404C776.706 147.353 779.033 144.983 782.067 143.296C785.101 141.591 788.749 140.739 793.01 140.739C797.271 140.739 800.919 141.591 803.953 143.296C806.987 144.983 809.314 147.353 810.933 150.404C812.553 153.438 813.362 156.966 813.362 160.989C813.362 165.012 812.553 168.549 810.933 171.6C809.314 174.634 806.987 177.003 803.953 178.708C800.919 180.395 797.271 181.239 793.01 181.239ZM793.112 170.807C794.305 170.807 795.337 170.407 796.206 169.605C797.075 168.804 797.749 167.662 798.226 166.179C798.703 164.696 798.942 162.932 798.942 160.887C798.942 158.824 798.703 157.06 798.226 155.594C797.749 154.111 797.075 152.969 796.206 152.168C795.337 151.367 794.305 150.966 793.112 150.966C791.851 150.966 790.768 151.367 789.865 152.168C788.962 152.969 788.271 154.111 787.794 155.594C787.317 157.06 787.078 158.824 787.078 160.887C787.078 162.932 787.317 164.696 787.794 166.179C788.271 167.662 788.962 168.804 789.865 169.605C790.768 170.407 791.851 170.807 793.112 170.807ZM829.924 141.25L835.651 153.421L841.685 141.25H855.697L845.163 160.887L856.208 180.523H842.299L835.651 168.046L829.208 180.523H815.094L826.242 160.887L815.81 141.25H829.924ZM869.305 195.25C867.686 195.25 866.143 195.122 864.678 194.867C863.212 194.628 861.925 194.296 860.817 193.87L863.885 183.847C865.044 184.256 866.101 184.52 867.055 184.639C868.027 184.759 868.854 184.691 869.535 184.435C870.234 184.179 870.737 183.693 871.044 182.978L871.351 182.262L857.544 141.25H872.271L878.612 168.455H879.021L885.464 141.25H900.294L885.976 183.796C885.26 185.961 884.22 187.904 882.856 189.625C881.51 191.364 879.737 192.736 877.538 193.742C875.339 194.747 872.595 195.25 869.305 195.25Z" fill="url(#paint6_radial_138_5)"/>
<path d="M304.017 237H300.642L306.787 219.545H310.69L316.844 237H313.469L308.807 223.125H308.67L304.017 237ZM304.128 230.156H313.332V232.696H304.128V230.156ZM334.581 224.344C334.502 223.599 334.167 223.02 333.576 222.605C332.991 222.19 332.229 221.983 331.292 221.983C330.633 221.983 330.067 222.082 329.596 222.281C329.124 222.48 328.763 222.75 328.513 223.091C328.263 223.432 328.135 223.821 328.13 224.259C328.13 224.622 328.212 224.937 328.377 225.205C328.547 225.472 328.777 225.699 329.067 225.886C329.357 226.068 329.678 226.222 330.03 226.347C330.383 226.472 330.738 226.577 331.096 226.662L332.732 227.071C333.391 227.224 334.025 227.432 334.633 227.693C335.246 227.955 335.795 228.284 336.277 228.682C336.766 229.08 337.152 229.56 337.437 230.122C337.721 230.685 337.863 231.344 337.863 232.099C337.863 233.122 337.601 234.023 337.079 234.801C336.556 235.574 335.8 236.179 334.812 236.616C333.829 237.048 332.638 237.264 331.241 237.264C329.883 237.264 328.704 237.054 327.704 236.634C326.709 236.213 325.931 235.599 325.368 234.793C324.812 233.986 324.51 233.003 324.465 231.844H327.576C327.621 232.452 327.809 232.957 328.138 233.361C328.468 233.764 328.897 234.065 329.425 234.264C329.959 234.463 330.556 234.562 331.215 234.562C331.902 234.562 332.505 234.46 333.022 234.256C333.545 234.045 333.954 233.756 334.249 233.386C334.545 233.011 334.695 232.574 334.701 232.074C334.695 231.619 334.562 231.244 334.3 230.949C334.039 230.648 333.672 230.398 333.201 230.199C332.735 229.994 332.189 229.812 331.564 229.653L329.579 229.142C328.141 228.773 327.005 228.213 326.17 227.463C325.34 226.707 324.925 225.705 324.925 224.455C324.925 223.426 325.204 222.526 325.76 221.753C326.323 220.98 327.087 220.381 328.053 219.955C329.019 219.523 330.113 219.307 331.334 219.307C332.573 219.307 333.658 219.523 334.59 219.955C335.527 220.381 336.263 220.974 336.797 221.736C337.331 222.491 337.607 223.361 337.624 224.344H334.581ZM342.463 241.909C342.042 241.909 341.653 241.875 341.295 241.807C340.943 241.744 340.662 241.67 340.451 241.585L341.167 239.182C341.616 239.313 342.017 239.375 342.369 239.369C342.721 239.364 343.031 239.253 343.298 239.037C343.571 238.827 343.801 238.474 343.988 237.98L344.253 237.273L339.505 223.909H342.778L345.795 233.795H345.932L348.957 223.909H352.238L346.997 238.585C346.753 239.278 346.429 239.872 346.025 240.366C345.622 240.866 345.128 241.247 344.542 241.509C343.963 241.776 343.27 241.909 342.463 241.909ZM364.72 227.369L361.907 227.676C361.828 227.392 361.689 227.125 361.49 226.875C361.297 226.625 361.035 226.423 360.706 226.27C360.376 226.116 359.973 226.04 359.496 226.04C358.853 226.04 358.314 226.179 357.876 226.457C357.444 226.736 357.231 227.097 357.237 227.54C357.231 227.92 357.371 228.23 357.655 228.469C357.944 228.707 358.422 228.903 359.086 229.057L361.319 229.534C362.558 229.801 363.478 230.224 364.081 230.804C364.689 231.384 364.996 232.142 365.001 233.08C364.996 233.903 364.754 234.631 364.277 235.261C363.805 235.886 363.149 236.375 362.308 236.727C361.467 237.08 360.501 237.256 359.41 237.256C357.808 237.256 356.518 236.92 355.541 236.25C354.564 235.574 353.981 234.634 353.794 233.429L356.802 233.139C356.939 233.73 357.228 234.176 357.672 234.477C358.115 234.778 358.692 234.929 359.402 234.929C360.135 234.929 360.723 234.778 361.166 234.477C361.615 234.176 361.839 233.804 361.839 233.361C361.839 232.986 361.694 232.676 361.405 232.432C361.121 232.187 360.677 232 360.075 231.869L357.842 231.401C356.586 231.139 355.657 230.699 355.055 230.08C354.453 229.455 354.155 228.665 354.16 227.71C354.155 226.903 354.373 226.205 354.817 225.614C355.265 225.017 355.888 224.557 356.683 224.233C357.484 223.903 358.407 223.739 359.453 223.739C360.987 223.739 362.194 224.065 363.075 224.719C363.961 225.372 364.51 226.256 364.72 227.369ZM370.63 219.545V237H367.545V219.545H370.63ZM379.513 237.256C378.235 237.256 377.127 236.974 376.189 236.412C375.252 235.849 374.525 235.062 374.008 234.051C373.496 233.04 373.241 231.858 373.241 230.506C373.241 229.153 373.496 227.969 374.008 226.952C374.525 225.935 375.252 225.145 376.189 224.582C377.127 224.02 378.235 223.739 379.513 223.739C380.792 223.739 381.9 224.02 382.837 224.582C383.775 225.145 384.499 225.935 385.01 226.952C385.527 227.969 385.786 229.153 385.786 230.506C385.786 231.858 385.527 233.04 385.01 234.051C384.499 235.062 383.775 235.849 382.837 236.412C381.9 236.974 380.792 237.256 379.513 237.256ZM379.53 234.784C380.224 234.784 380.803 234.594 381.269 234.213C381.735 233.827 382.081 233.31 382.309 232.662C382.542 232.014 382.658 231.293 382.658 230.497C382.658 229.696 382.542 228.972 382.309 228.324C382.081 227.67 381.735 227.151 381.269 226.764C380.803 226.378 380.224 226.185 379.53 226.185C378.82 226.185 378.229 226.378 377.758 226.764C377.292 227.151 376.942 227.67 376.709 228.324C376.482 228.972 376.368 229.696 376.368 230.497C376.368 231.293 376.482 232.014 376.709 232.662C376.942 233.31 377.292 233.827 377.758 234.213C378.229 234.594 378.82 234.784 379.53 234.784ZM394.098 242.182C392.99 242.182 392.038 242.031 391.243 241.73C390.447 241.435 389.808 241.037 389.325 240.537C388.842 240.037 388.507 239.483 388.319 238.875L391.098 238.202C391.223 238.457 391.405 238.71 391.643 238.96C391.882 239.216 392.203 239.426 392.606 239.591C393.015 239.761 393.53 239.847 394.149 239.847C395.024 239.847 395.748 239.634 396.322 239.207C396.896 238.787 397.183 238.094 397.183 237.128V234.648H397.03C396.871 234.966 396.638 235.293 396.331 235.628C396.03 235.963 395.629 236.244 395.129 236.472C394.635 236.699 394.013 236.812 393.263 236.812C392.257 236.812 391.345 236.577 390.527 236.105C389.714 235.628 389.067 234.918 388.584 233.974C388.106 233.026 387.868 231.838 387.868 230.412C387.868 228.974 388.106 227.761 388.584 226.773C389.067 225.778 389.717 225.026 390.535 224.514C391.353 223.997 392.265 223.739 393.271 223.739C394.038 223.739 394.669 223.869 395.163 224.131C395.663 224.386 396.061 224.696 396.356 225.06C396.652 225.418 396.876 225.756 397.03 226.074H397.2V223.909H400.243V237.213C400.243 238.332 399.976 239.259 399.442 239.991C398.907 240.724 398.177 241.273 397.251 241.636C396.325 242 395.274 242.182 394.098 242.182ZM394.123 234.392C394.777 234.392 395.334 234.233 395.794 233.915C396.254 233.597 396.603 233.139 396.842 232.543C397.081 231.946 397.2 231.23 397.2 230.395C397.2 229.571 397.081 228.849 396.842 228.23C396.609 227.611 396.263 227.131 395.802 226.79C395.348 226.443 394.788 226.27 394.123 226.27C393.436 226.27 392.862 226.449 392.402 226.807C391.942 227.165 391.595 227.656 391.362 228.281C391.129 228.901 391.013 229.605 391.013 230.395C391.013 231.196 391.129 231.898 391.362 232.5C391.601 233.097 391.95 233.562 392.41 233.898C392.876 234.227 393.447 234.392 394.123 234.392ZM419.704 227.369L416.892 227.676C416.812 227.392 416.673 227.125 416.474 226.875C416.281 226.625 416.02 226.423 415.69 226.27C415.361 226.116 414.957 226.04 414.48 226.04C413.838 226.04 413.298 226.179 412.861 226.457C412.429 226.736 412.216 227.097 412.221 227.54C412.216 227.92 412.355 228.23 412.639 228.469C412.929 228.707 413.406 228.903 414.071 229.057L416.304 229.534C417.542 229.801 418.463 230.224 419.065 230.804C419.673 231.384 419.98 232.142 419.986 233.08C419.98 233.903 419.738 234.631 419.261 235.261C418.79 235.886 418.133 236.375 417.292 236.727C416.451 237.08 415.486 237.256 414.395 237.256C412.792 237.256 411.503 236.92 410.525 236.25C409.548 235.574 408.966 234.634 408.778 233.429L411.787 233.139C411.923 233.73 412.213 234.176 412.656 234.477C413.099 234.778 413.676 234.929 414.386 234.929C415.119 234.929 415.707 234.778 416.15 234.477C416.599 234.176 416.824 233.804 416.824 233.361C416.824 232.986 416.679 232.676 416.389 232.432C416.105 232.187 415.662 232 415.059 231.869L412.826 231.401C411.571 231.139 410.642 230.699 410.04 230.08C409.437 229.455 409.139 228.665 409.145 227.71C409.139 226.903 409.358 226.205 409.801 225.614C410.25 225.017 410.872 224.557 411.667 224.233C412.469 223.903 413.392 223.739 414.437 223.739C415.971 223.739 417.179 224.065 418.059 224.719C418.946 225.372 419.494 226.256 419.704 227.369ZM428.325 237.256C427.013 237.256 425.879 236.983 424.925 236.438C423.976 235.886 423.246 235.108 422.734 234.102C422.223 233.091 421.967 231.901 421.967 230.531C421.967 229.185 422.223 228.003 422.734 226.986C423.251 225.963 423.973 225.168 424.899 224.599C425.825 224.026 426.913 223.739 428.163 223.739C428.97 223.739 429.731 223.869 430.447 224.131C431.169 224.386 431.805 224.784 432.356 225.324C432.913 225.864 433.351 226.551 433.669 227.386C433.987 228.216 434.146 229.205 434.146 230.352V231.298H423.416V229.219H431.189C431.183 228.628 431.055 228.102 430.805 227.642C430.555 227.176 430.206 226.81 429.757 226.543C429.314 226.276 428.797 226.142 428.206 226.142C427.575 226.142 427.021 226.295 426.544 226.602C426.067 226.903 425.694 227.301 425.427 227.795C425.166 228.284 425.032 228.821 425.027 229.406V231.222C425.027 231.983 425.166 232.636 425.444 233.182C425.723 233.722 426.112 234.136 426.612 234.426C427.112 234.71 427.697 234.852 428.368 234.852C428.817 234.852 429.223 234.79 429.586 234.665C429.95 234.534 430.265 234.344 430.532 234.094C430.8 233.844 431.001 233.534 431.138 233.165L434.018 233.489C433.836 234.25 433.49 234.915 432.978 235.483C432.473 236.045 431.825 236.483 431.035 236.795C430.246 237.102 429.342 237.256 428.325 237.256ZM436.756 237V223.909H439.748V226.091H439.884C440.123 225.335 440.532 224.753 441.111 224.344C441.697 223.929 442.364 223.722 443.114 223.722C443.285 223.722 443.475 223.73 443.685 223.747C443.901 223.759 444.08 223.778 444.222 223.807V226.645C444.091 226.599 443.884 226.56 443.6 226.526C443.322 226.486 443.052 226.466 442.79 226.466C442.228 226.466 441.722 226.588 441.273 226.832C440.83 227.071 440.481 227.403 440.225 227.83C439.969 228.256 439.841 228.747 439.841 229.304V237H436.756ZM458.363 223.909L453.701 237H450.292L445.63 223.909H448.92L451.929 233.634H452.065L455.082 223.909H458.363ZM465.849 237.256C464.536 237.256 463.402 236.983 462.448 236.438C461.499 235.886 460.769 235.108 460.258 234.102C459.746 233.091 459.491 231.901 459.491 230.531C459.491 229.185 459.746 228.003 460.258 226.986C460.775 225.963 461.496 225.168 462.422 224.599C463.349 224.026 464.437 223.739 465.687 223.739C466.493 223.739 467.255 223.869 467.971 224.131C468.692 224.386 469.329 224.784 469.88 225.324C470.437 225.864 470.874 226.551 471.192 227.386C471.51 228.216 471.67 229.205 471.67 230.352V231.298H460.939V229.219H468.712C468.706 228.628 468.579 228.102 468.329 227.642C468.079 227.176 467.729 226.81 467.28 226.543C466.837 226.276 466.32 226.142 465.729 226.142C465.099 226.142 464.545 226.295 464.067 226.602C463.59 226.903 463.218 227.301 462.951 227.795C462.689 228.284 462.556 228.821 462.55 229.406V231.222C462.55 231.983 462.689 232.636 462.968 233.182C463.246 233.722 463.635 234.136 464.135 234.426C464.635 234.71 465.221 234.852 465.891 234.852C466.34 234.852 466.746 234.79 467.11 234.665C467.474 234.534 467.789 234.344 468.056 234.094C468.323 233.844 468.525 233.534 468.661 233.165L471.542 233.489C471.36 234.25 471.013 234.915 470.502 235.483C469.996 236.045 469.349 236.483 468.559 236.795C467.769 237.102 466.866 237.256 465.849 237.256ZM474.28 237V223.909H477.271V226.091H477.407C477.646 225.335 478.055 224.753 478.635 224.344C479.22 223.929 479.888 223.722 480.638 223.722C480.808 223.722 480.998 223.73 481.209 223.747C481.425 223.759 481.603 223.778 481.746 223.807V226.645C481.615 226.599 481.407 226.56 481.123 226.526C480.845 226.486 480.575 226.466 480.314 226.466C479.751 226.466 479.246 226.588 478.797 226.832C478.353 227.071 478.004 227.403 477.748 227.83C477.493 228.256 477.365 228.747 477.365 229.304V237H474.28ZM496.285 223.909V226.295H488.76V223.909H496.285ZM490.618 220.773H493.703V233.062C493.703 233.477 493.765 233.795 493.89 234.017C494.021 234.233 494.192 234.381 494.402 234.46C494.612 234.54 494.845 234.58 495.101 234.58C495.294 234.58 495.47 234.565 495.629 234.537C495.794 234.509 495.919 234.483 496.004 234.46L496.524 236.872C496.359 236.929 496.123 236.991 495.817 237.06C495.515 237.128 495.146 237.168 494.709 237.179C493.936 237.202 493.24 237.085 492.621 236.83C492.001 236.568 491.51 236.165 491.146 235.619C490.788 235.074 490.612 234.392 490.618 233.574V220.773ZM502.232 229.33V237H499.147V219.545H502.164V226.134H502.317C502.624 225.395 503.099 224.812 503.741 224.386C504.388 223.955 505.212 223.739 506.212 223.739C507.121 223.739 507.914 223.929 508.59 224.31C509.266 224.69 509.789 225.247 510.158 225.98C510.533 226.713 510.721 227.608 510.721 228.665V237H507.635V229.142C507.635 228.261 507.408 227.577 506.954 227.088C506.505 226.594 505.874 226.347 505.062 226.347C504.516 226.347 504.027 226.466 503.596 226.705C503.17 226.937 502.834 227.276 502.59 227.719C502.351 228.162 502.232 228.699 502.232 229.33ZM517.633 237.264C516.803 237.264 516.056 237.116 515.391 236.821C514.732 236.52 514.209 236.077 513.823 235.491C513.442 234.906 513.252 234.185 513.252 233.327C513.252 232.588 513.388 231.977 513.661 231.494C513.934 231.011 514.306 230.625 514.777 230.335C515.249 230.045 515.78 229.827 516.371 229.679C516.968 229.526 517.584 229.415 518.221 229.347C518.988 229.267 519.61 229.196 520.087 229.134C520.564 229.065 520.911 228.963 521.127 228.827C521.349 228.685 521.459 228.466 521.459 228.17V228.119C521.459 227.477 521.269 226.98 520.888 226.628C520.508 226.276 519.959 226.099 519.243 226.099C518.488 226.099 517.888 226.264 517.445 226.594C517.008 226.923 516.712 227.312 516.559 227.761L513.678 227.352C513.905 226.557 514.28 225.892 514.803 225.358C515.326 224.818 515.965 224.415 516.721 224.148C517.476 223.875 518.312 223.739 519.226 223.739C519.857 223.739 520.485 223.812 521.11 223.96C521.735 224.108 522.306 224.352 522.823 224.693C523.34 225.028 523.755 225.486 524.067 226.065C524.385 226.645 524.545 227.369 524.545 228.239V237H521.579V235.202H521.476C521.289 235.565 521.025 235.906 520.684 236.224C520.349 236.537 519.925 236.79 519.414 236.983C518.908 237.17 518.314 237.264 517.633 237.264ZM518.434 234.997C519.053 234.997 519.59 234.875 520.045 234.631C520.499 234.381 520.849 234.051 521.093 233.642C521.343 233.233 521.468 232.787 521.468 232.304V230.761C521.371 230.841 521.206 230.915 520.974 230.983C520.746 231.051 520.491 231.111 520.206 231.162C519.922 231.213 519.641 231.259 519.363 231.298C519.084 231.338 518.843 231.372 518.638 231.401C518.178 231.463 517.766 231.565 517.402 231.707C517.039 231.849 516.752 232.048 516.542 232.304C516.331 232.554 516.226 232.878 516.226 233.276C516.226 233.844 516.434 234.273 516.849 234.562C517.263 234.852 517.792 234.997 518.434 234.997ZM534.184 223.909V226.295H526.658V223.909H534.184ZM528.516 220.773H531.601V233.062C531.601 233.477 531.664 233.795 531.789 234.017C531.92 234.233 532.09 234.381 532.3 234.46C532.51 234.54 532.743 234.58 532.999 234.58C533.192 234.58 533.368 234.565 533.527 234.537C533.692 234.509 533.817 234.483 533.902 234.46L534.422 236.872C534.258 236.929 534.022 236.991 533.715 237.06C533.414 237.128 533.045 237.168 532.607 237.179C531.834 237.202 531.138 237.085 530.519 236.83C529.9 236.568 529.408 236.165 529.045 235.619C528.687 235.074 528.51 234.392 528.516 233.574V220.773ZM553.064 227.369L550.251 227.676C550.172 227.392 550.032 227.125 549.834 226.875C549.64 226.625 549.379 226.423 549.05 226.27C548.72 226.116 548.317 226.04 547.839 226.04C547.197 226.04 546.657 226.179 546.22 226.457C545.788 226.736 545.575 227.097 545.581 227.54C545.575 227.92 545.714 228.23 545.998 228.469C546.288 228.707 546.765 228.903 547.43 229.057L549.663 229.534C550.902 229.801 551.822 230.224 552.425 230.804C553.032 231.384 553.339 232.142 553.345 233.08C553.339 233.903 553.098 234.631 552.621 235.261C552.149 235.886 551.493 236.375 550.652 236.727C549.811 237.08 548.845 237.256 547.754 237.256C546.152 237.256 544.862 236.92 543.885 236.25C542.907 235.574 542.325 234.634 542.138 233.429L545.146 233.139C545.282 233.73 545.572 234.176 546.015 234.477C546.459 234.778 547.035 234.929 547.746 234.929C548.478 234.929 549.067 234.778 549.51 234.477C549.959 234.176 550.183 233.804 550.183 233.361C550.183 232.986 550.038 232.676 549.748 232.432C549.464 232.187 549.021 232 548.419 231.869L546.186 231.401C544.93 231.139 544.001 230.699 543.399 230.08C542.797 229.455 542.498 228.665 542.504 227.71C542.498 226.903 542.717 226.205 543.16 225.614C543.609 225.017 544.231 224.557 545.027 224.233C545.828 223.903 546.751 223.739 547.797 223.739C549.331 223.739 550.538 224.065 551.419 224.719C552.305 225.372 552.853 226.256 553.064 227.369ZM558.974 229.33V237H555.889V219.545H558.906V226.134H559.059C559.366 225.395 559.841 224.812 560.483 224.386C561.13 223.955 561.954 223.739 562.954 223.739C563.863 223.739 564.656 223.929 565.332 224.31C566.008 224.69 566.531 225.247 566.9 225.98C567.275 226.713 567.463 227.608 567.463 228.665V237H564.378V229.142C564.378 228.261 564.15 227.577 563.696 227.088C563.247 226.594 562.616 226.347 561.804 226.347C561.258 226.347 560.77 226.466 560.338 226.705C559.912 226.937 559.576 227.276 559.332 227.719C559.094 228.162 558.974 228.699 558.974 229.33ZM570.608 237V223.909H573.693V237H570.608ZM572.159 222.051C571.67 222.051 571.25 221.889 570.898 221.565C570.545 221.236 570.369 220.841 570.369 220.381C570.369 219.915 570.545 219.52 570.898 219.196C571.25 218.866 571.67 218.702 572.159 218.702C572.653 218.702 573.074 218.866 573.42 219.196C573.773 219.52 573.949 219.915 573.949 220.381C573.949 220.841 573.773 221.236 573.42 221.565C573.074 221.889 572.653 222.051 572.159 222.051ZM576.866 241.909V223.909H579.9V226.074H580.079C580.238 225.756 580.462 225.418 580.752 225.06C581.042 224.696 581.434 224.386 581.928 224.131C582.422 223.869 583.053 223.739 583.82 223.739C584.831 223.739 585.743 223.997 586.556 224.514C587.374 225.026 588.022 225.784 588.499 226.79C588.982 227.79 589.224 229.017 589.224 230.472C589.224 231.909 588.988 233.131 588.516 234.136C588.045 235.142 587.402 235.909 586.59 236.438C585.777 236.966 584.857 237.23 583.829 237.23C583.079 237.23 582.456 237.105 581.962 236.855C581.468 236.605 581.07 236.304 580.769 235.952C580.474 235.594 580.243 235.256 580.079 234.938H579.951V241.909H576.866ZM579.891 230.455C579.891 231.301 580.01 232.043 580.249 232.679C580.493 233.315 580.843 233.812 581.297 234.17C581.758 234.523 582.314 234.699 582.968 234.699C583.65 234.699 584.221 234.517 584.681 234.153C585.141 233.784 585.488 233.281 585.721 232.645C585.959 232.003 586.079 231.273 586.079 230.455C586.079 229.642 585.962 228.92 585.729 228.29C585.496 227.659 585.15 227.165 584.689 226.807C584.229 226.449 583.655 226.27 582.968 226.27C582.309 226.27 581.749 226.443 581.289 226.79C580.829 227.136 580.479 227.622 580.241 228.247C580.008 228.872 579.891 229.608 579.891 230.455ZM602.212 227.369L599.4 227.676C599.32 227.392 599.181 227.125 598.982 226.875C598.789 226.625 598.527 226.423 598.198 226.27C597.868 226.116 597.465 226.04 596.988 226.04C596.346 226.04 595.806 226.179 595.368 226.457C594.937 226.736 594.724 227.097 594.729 227.54C594.724 227.92 594.863 228.23 595.147 228.469C595.437 228.707 595.914 228.903 596.579 229.057L598.812 229.534C600.05 229.801 600.971 230.224 601.573 230.804C602.181 231.384 602.488 232.142 602.493 233.08C602.488 233.903 602.246 234.631 601.769 235.261C601.297 235.886 600.641 236.375 599.8 236.727C598.959 237.08 597.993 237.256 596.902 237.256C595.3 237.256 594.01 236.92 593.033 236.25C592.056 235.574 591.474 234.634 591.286 233.429L594.295 233.139C594.431 233.73 594.721 234.176 595.164 234.477C595.607 234.778 596.184 234.929 596.894 234.929C597.627 234.929 598.215 234.778 598.658 234.477C599.107 234.176 599.331 233.804 599.331 233.361C599.331 232.986 599.187 232.676 598.897 232.432C598.613 232.187 598.17 232 597.567 231.869L595.334 231.401C594.079 231.139 593.15 230.699 592.547 230.08C591.945 229.455 591.647 228.665 591.652 227.71C591.647 226.903 591.866 226.205 592.309 225.614C592.758 225.017 593.38 224.557 594.175 224.233C594.976 223.903 595.9 223.739 596.945 223.739C598.479 223.739 599.687 224.065 600.567 224.719C601.454 225.372 602.002 226.256 602.212 227.369ZM614.076 219.545V237H610.991V219.545H614.076ZM622.959 237.256C621.68 237.256 620.572 236.974 619.635 236.412C618.697 235.849 617.97 235.062 617.453 234.051C616.942 233.04 616.686 231.858 616.686 230.506C616.686 229.153 616.942 227.969 617.453 226.952C617.97 225.935 618.697 225.145 619.635 224.582C620.572 224.02 621.68 223.739 622.959 223.739C624.237 223.739 625.345 224.02 626.282 224.582C627.22 225.145 627.944 225.935 628.456 226.952C628.973 227.969 629.231 229.153 629.231 230.506C629.231 231.858 628.973 233.04 628.456 234.051C627.944 235.062 627.22 235.849 626.282 236.412C625.345 236.974 624.237 237.256 622.959 237.256ZM622.976 234.784C623.669 234.784 624.248 234.594 624.714 234.213C625.18 233.827 625.527 233.31 625.754 232.662C625.987 232.014 626.103 231.293 626.103 230.497C626.103 229.696 625.987 228.972 625.754 228.324C625.527 227.67 625.18 227.151 624.714 226.764C624.248 226.378 623.669 226.185 622.976 226.185C622.265 226.185 621.675 226.378 621.203 226.764C620.737 227.151 620.388 227.67 620.155 228.324C619.927 228.972 619.814 229.696 619.814 230.497C619.814 231.293 619.927 232.014 620.155 232.662C620.388 233.31 620.737 233.827 621.203 234.213C621.675 234.594 622.265 234.784 622.976 234.784ZM637.543 242.182C636.435 242.182 635.483 242.031 634.688 241.73C633.893 241.435 633.253 241.037 632.77 240.537C632.287 240.037 631.952 239.483 631.765 238.875L634.543 238.202C634.668 238.457 634.85 238.71 635.089 238.96C635.327 239.216 635.648 239.426 636.052 239.591C636.461 239.761 636.975 239.847 637.594 239.847C638.469 239.847 639.194 239.634 639.768 239.207C640.341 238.787 640.628 238.094 640.628 237.128V234.648H640.475C640.316 234.966 640.083 235.293 639.776 235.628C639.475 235.963 639.074 236.244 638.574 236.472C638.08 236.699 637.458 236.812 636.708 236.812C635.702 236.812 634.79 236.577 633.972 236.105C633.16 235.628 632.512 234.918 632.029 233.974C631.552 233.026 631.313 231.838 631.313 230.412C631.313 228.974 631.552 227.761 632.029 226.773C632.512 225.778 633.162 225.026 633.981 224.514C634.799 223.997 635.711 223.739 636.716 223.739C637.483 223.739 638.114 223.869 638.608 224.131C639.108 224.386 639.506 224.696 639.802 225.06C640.097 225.418 640.322 225.756 640.475 226.074H640.645V223.909H643.688V237.213C643.688 238.332 643.421 239.259 642.887 239.991C642.353 240.724 641.623 241.273 640.697 241.636C639.77 242 638.719 242.182 637.543 242.182ZM637.569 234.392C638.222 234.392 638.779 234.233 639.239 233.915C639.699 233.597 640.049 233.139 640.287 232.543C640.526 231.946 640.645 231.23 640.645 230.395C640.645 229.571 640.526 228.849 640.287 228.23C640.054 227.611 639.708 227.131 639.248 226.79C638.793 226.443 638.233 226.27 637.569 226.27C636.881 226.27 636.307 226.449 635.847 226.807C635.387 227.165 635.04 227.656 634.807 228.281C634.574 228.901 634.458 229.605 634.458 230.395C634.458 231.196 634.574 231.898 634.807 232.5C635.046 233.097 635.395 233.562 635.856 233.898C636.322 234.227 636.893 234.392 637.569 234.392ZM657.197 227.369L654.384 227.676C654.304 227.392 654.165 227.125 653.966 226.875C653.773 226.625 653.512 226.423 653.182 226.27C652.853 226.116 652.449 226.04 651.972 226.04C651.33 226.04 650.79 226.179 650.353 226.457C649.921 226.736 649.708 227.097 649.714 227.54C649.708 227.92 649.847 228.23 650.131 228.469C650.421 228.707 650.898 228.903 651.563 229.057L653.796 229.534C655.035 229.801 655.955 230.224 656.557 230.804C657.165 231.384 657.472 232.142 657.478 233.08C657.472 233.903 657.231 234.631 656.753 235.261C656.282 235.886 655.626 236.375 654.785 236.727C653.944 237.08 652.978 237.256 651.887 237.256C650.285 237.256 648.995 236.92 648.018 236.25C647.04 235.574 646.458 234.634 646.27 233.429L649.279 233.139C649.415 233.73 649.705 234.176 650.148 234.477C650.591 234.778 651.168 234.929 651.878 234.929C652.611 234.929 653.199 234.778 653.643 234.477C654.091 234.176 654.316 233.804 654.316 233.361C654.316 232.986 654.171 232.676 653.881 232.432C653.597 232.187 653.154 232 652.552 231.869L650.319 231.401C649.063 231.139 648.134 230.699 647.532 230.08C646.929 229.455 646.631 228.665 646.637 227.71C646.631 226.903 646.85 226.205 647.293 225.614C647.742 225.017 648.364 224.557 649.16 224.233C649.961 223.903 650.884 223.739 651.929 223.739C653.464 223.739 654.671 224.065 655.552 224.719C656.438 225.372 656.986 226.256 657.197 227.369ZM672.512 223.909V226.295H664.986V223.909H672.512ZM666.844 220.773H669.929V233.062C669.929 233.477 669.992 233.795 670.117 234.017C670.248 234.233 670.418 234.381 670.628 234.46C670.839 234.54 671.072 234.58 671.327 234.58C671.52 234.58 671.697 234.565 671.856 234.537C672.02 234.509 672.145 234.483 672.231 234.46L672.751 236.872C672.586 236.929 672.35 236.991 672.043 237.06C671.742 237.128 671.373 237.168 670.935 237.179C670.162 237.202 669.466 237.085 668.847 236.83C668.228 236.568 667.736 236.165 667.373 235.619C667.015 235.074 666.839 234.392 666.844 233.574V220.773ZM680.662 237.256C679.383 237.256 678.275 236.974 677.338 236.412C676.4 235.849 675.673 235.062 675.156 234.051C674.645 233.04 674.389 231.858 674.389 230.506C674.389 229.153 674.645 227.969 675.156 226.952C675.673 225.935 676.4 225.145 677.338 224.582C678.275 224.02 679.383 223.739 680.662 223.739C681.94 223.739 683.048 224.02 683.986 224.582C684.923 225.145 685.648 225.935 686.159 226.952C686.676 227.969 686.934 229.153 686.934 230.506C686.934 231.858 686.676 233.04 686.159 234.051C685.648 235.062 684.923 235.849 683.986 236.412C683.048 236.974 681.94 237.256 680.662 237.256ZM680.679 234.784C681.372 234.784 681.951 234.594 682.417 234.213C682.883 233.827 683.23 233.31 683.457 232.662C683.69 232.014 683.807 231.293 683.807 230.497C683.807 229.696 683.69 228.972 683.457 228.324C683.23 227.67 682.883 227.151 682.417 226.764C681.951 226.378 681.372 226.185 680.679 226.185C679.969 226.185 679.378 226.378 678.906 226.764C678.44 227.151 678.091 227.67 677.858 228.324C677.63 228.972 677.517 229.696 677.517 230.497C677.517 231.293 677.63 232.014 677.858 232.662C678.091 233.31 678.44 233.827 678.906 234.213C679.378 234.594 679.969 234.784 680.679 234.784ZM697.884 237H694.509L700.654 219.545H704.557L710.711 237H707.336L702.674 223.125H702.537L697.884 237ZM697.995 230.156H707.199V232.696H697.995V230.156ZM715.396 223.909L718.038 228.741L720.723 223.909H723.987L720.041 230.455L724.055 237H720.808L718.038 232.287L715.294 237H712.021L716.01 230.455L712.123 223.909H715.396ZM726.373 237V223.909H729.459V237H726.373ZM727.925 222.051C727.436 222.051 727.015 221.889 726.663 221.565C726.311 221.236 726.135 220.841 726.135 220.381C726.135 219.915 726.311 219.52 726.663 219.196C727.015 218.866 727.436 218.702 727.925 218.702C728.419 218.702 728.839 218.866 729.186 219.196C729.538 219.52 729.714 219.915 729.714 220.381C729.714 220.841 729.538 221.236 729.186 221.565C728.839 221.889 728.419 222.051 727.925 222.051ZM738.341 237.256C737.063 237.256 735.955 236.974 735.018 236.412C734.08 235.849 733.353 235.062 732.836 234.051C732.324 233.04 732.069 231.858 732.069 230.506C732.069 229.153 732.324 227.969 732.836 226.952C733.353 225.935 734.08 225.145 735.018 224.582C735.955 224.02 737.063 223.739 738.341 223.739C739.62 223.739 740.728 224.02 741.665 224.582C742.603 225.145 743.327 225.935 743.839 226.952C744.356 227.969 744.614 229.153 744.614 230.506C744.614 231.858 744.356 233.04 743.839 234.051C743.327 235.062 742.603 235.849 741.665 236.412C740.728 236.974 739.62 237.256 738.341 237.256ZM738.358 234.784C739.052 234.784 739.631 234.594 740.097 234.213C740.563 233.827 740.91 233.31 741.137 232.662C741.37 232.014 741.486 231.293 741.486 230.497C741.486 229.696 741.37 228.972 741.137 228.324C740.91 227.67 740.563 227.151 740.097 226.764C739.631 226.378 739.052 226.185 738.358 226.185C737.648 226.185 737.057 226.378 736.586 226.764C736.12 227.151 735.77 227.67 735.537 228.324C735.31 228.972 735.197 229.696 735.197 230.497C735.197 231.293 735.31 232.014 735.537 232.662C735.77 233.31 736.12 233.827 736.586 234.213C737.057 234.594 737.648 234.784 738.358 234.784ZM747.233 237V223.909H750.182V226.134H750.335C750.608 225.384 751.059 224.798 751.69 224.378C752.321 223.952 753.074 223.739 753.949 223.739C754.835 223.739 755.582 223.955 756.19 224.386C756.804 224.812 757.236 225.395 757.486 226.134H757.622C757.912 225.406 758.4 224.827 759.088 224.395C759.781 223.957 760.602 223.739 761.551 223.739C762.755 223.739 763.738 224.119 764.5 224.881C765.261 225.642 765.642 226.753 765.642 228.213V237H762.548V228.69C762.548 227.878 762.332 227.284 761.9 226.909C761.469 226.528 760.94 226.338 760.315 226.338C759.571 226.338 758.988 226.571 758.568 227.037C758.153 227.497 757.946 228.097 757.946 228.835V237H754.92V228.562C754.92 227.886 754.716 227.347 754.307 226.943C753.903 226.54 753.375 226.338 752.721 226.338C752.278 226.338 751.875 226.452 751.511 226.679C751.148 226.901 750.858 227.216 750.642 227.625C750.426 228.028 750.318 228.5 750.318 229.04V237H747.233Z" fill="#09101F"/>
</g>
<rect x="0.786865" y="0.5" width="1065.67" height="399" stroke="#E0E0E0"/>
<defs>
<filter id="filter0_d_138_5" x="130.166" y="29.6461" width="835.175" height="207.104" filterUnits="userSpaceOnUse" color-interpolation-filters="sRGB">
<feFlood flood-opacity="0" result="BackgroundImageFix"/>
<feColorMatrix in="SourceAlpha" type="matrix" values="0 0 0 0 0 0 0 0 0 0 0 0 0 0 0 0 0 0 127 0" result="hardAlpha"/>
<feOffset dy="4"/>
<feGaussianBlur stdDeviation="16"/>
<feComposite in2="hardAlpha" operator="out"/>
<feColorMatrix type="matrix" values="0 0 0 0 0.1375 0 0 0 0 0.328673 0 0 0 0 1 0 0 0 1 0"/>
<feBlend mode="normal" in2="BackgroundImageFix" result="effect1_dropShadow_138_5"/>
<feBlend mode="normal" in="SourceGraphic" in2="effect1_dropShadow_138_5" result="shape"/>
</filter>
<linearGradient id="paint0_linear_138_5" x1="19.7213" y1="116.647" x2="-2.87256" y2="156.473" gradientUnits="userSpaceOnUse">
<stop stop-color="#6A68FF"/>
<stop offset="1" stop-color="#6C7EFF" stop-opacity="0"/>
</linearGradient>
<linearGradient id="paint1_linear_138_5" x1="-3.64529e+13" y1="177.186" x2="-3.64529e+13" y2="124.542" gradientUnits="userSpaceOnUse">
<stop stop-color="#6A68FF"/>
<stop offset="1" stop-color="#6C7EFF" stop-opacity="0"/>
</linearGradient>
<linearGradient id="paint2_linear_138_5" x1="-3.64529e+13" y1="199.779" x2="-3.64529e+13" y2="147.135" gradientUnits="userSpaceOnUse">
<stop stop-color="#6A68FF"/>
<stop offset="1" stop-color="#6C7EFF" stop-opacity="0"/>
</linearGradient>
<linearGradient id="paint3_linear_138_5" x1="3.64529e+13" y1="-225668" x2="3.64529e+13" y2="-225616" gradientUnits="userSpaceOnUse">
<stop stop-color="#6A68FF"/>
<stop offset="1" stop-color="#6C7EFF" stop-opacity="0"/>
</linearGradient>
<linearGradient id="paint4_linear_138_5" x1="3.64529e+13" y1="-225668" x2="3.64529e+13" y2="-225616" gradientUnits="userSpaceOnUse">
<stop stop-color="#6A68FF"/>
<stop offset="1" stop-color="#6C7EFF" stop-opacity="0"/>
</linearGradient>
<radialGradient id="paint5_radial_138_5" cx="0" cy="0" r="1" gradientUnits="userSpaceOnUse" gradientTransform="translate(533.5 199.694) rotate(90) scale(199.694 269.511)">
<stop stop-color="white"/>
<stop offset="1" stop-color="#D9D9D9" stop-opacity="0"/>
</radialGradient>
<radialGradient id="paint6_radial_138_5" cx="0" cy="0" r="1" gradientUnits="userSpaceOnUse" gradientTransform="translate(919.385 175.773) rotate(174.743) scale(724.043 9266.72)">
<stop stop-color="#0D0F26"/>
<stop offset="0.622778" stop-color="#384382"/>
<stop offset="0.773151" stop-color="#504F79"/>
<stop offset="1" stop-color="#0D0F26"/>
</radialGradient>
<clipPath id="clip0_138_5">
<rect x="0.286865" width="1066.67" height="400" fill="white"/>
</clipPath>
<clipPath id="clip1_138_5">
<rect width="1085" height="458" fill="white" transform="translate(-9 -29)"/>
</clipPath>
</defs>
</svg>
